<?xml version="1.0" encoding="UTF-8"?>
<!DOCTYPE svg PUBLIC "-//W3C//DTD SVG 1.1//EN" "http://www.w3.org/Graphics/SVG/1.1/DTD/svg11.dtd">
<svg xmlns="http://www.w3.org/2000/svg" version="1.1" width="716px" height="716px" style="shape-rendering:geometricPrecision; text-rendering:geometricPrecision; image-rendering:optimizeQuality; fill-rule:evenodd; clip-rule:evenodd" xmlns:xlink="http://www.w3.org/1999/xlink">
<g><path style="opacity:1" fill="#cdfd97" d="M -0.5,-0.5 C 1.83333,-0.5 4.16667,-0.5 6.5,-0.5C 6.37133,1.2161 6.038,2.88277 5.5,4.5C 3.5,4.5 1.5,4.5 -0.5,4.5C -0.5,2.83333 -0.5,1.16667 -0.5,-0.5 Z"/></g>
<g><path style="opacity:0.97" fill="#572e0a" d="M 6.5,-0.5 C 8.83333,-0.5 11.1667,-0.5 13.5,-0.5C 9.38825,15.5967 8.38825,31.93 10.5,48.5C 18.0856,49.3146 25.0856,51.8146 31.5,56C 36.5114,61.845 39.1781,68.6783 39.5,76.5C 43.6844,77.8735 48.0177,78.5402 52.5,78.5C 62.504,77.3995 72.504,76.2329 82.5,75C 90.8636,61.4139 101.864,58.9139 115.5,67.5C 111.779,51.8588 106.279,36.5255 99,21.5C 93.7136,13.7156 87.8803,6.38226 81.5,-0.5C 85.1667,-0.5 88.8333,-0.5 92.5,-0.5C 94.1667,1.5 95.8333,3.5 97.5,5.5C 102.516,12.1928 106.516,19.5261 109.5,27.5C 111.46,30.6295 113.127,33.9628 114.5,37.5C 117.991,48.4683 121.325,59.4683 124.5,70.5C 125.552,70.6495 126.552,70.4828 127.5,70C 131.71,65.9585 135.71,61.7918 139.5,57.5C 142.528,38.2495 143.194,18.9162 141.5,-0.5C 143.833,-0.5 146.167,-0.5 148.5,-0.5C 148.5,0.166667 148.833,0.5 149.5,0.5C 149.153,5.17192 149.82,9.83859 151.5,14.5C 151.439,22.616 150.773,31.2827 149.5,40.5C 150.073,42.3539 150.407,44.1873 150.5,46C 148.192,47.3961 148.525,48.0628 151.5,48C 164.862,38.7629 178.529,30.2629 192.5,22.5C 194.485,22.1414 195.151,21.308 194.5,20C 199.401,18.8831 203.734,16.7164 207.5,13.5C 213.14,11.4567 218.474,9.62337 223.5,8C 225.224,7.5518 225.891,6.71846 225.5,5.5C 226.842,6.90227 227.676,6.56893 228,4.5C 228.414,4.95735 228.914,5.29069 229.5,5.5C 230.763,3.19253 232.763,1.8592 235.5,1.5C 235.47,2.49722 235.97,3.16389 237,3.5C 241.423,1.99541 245.59,0.995412 249.5,0.5C 250.791,0.737305 251.791,0.403972 252.5,-0.5C 259.167,-0.5 265.833,-0.5 272.5,-0.5C 272.833,0.833333 273.167,0.833333 273.5,-0.5C 273.833,-0.5 274.167,-0.5 274.5,-0.5C 274.842,0.338246 275.508,0.67158 276.5,0.5C 278.347,1.68725 280.18,3.02059 282,4.5C 287.007,2.50397 290.007,4.17064 291,9.5C 291.308,8.69194 291.808,8.02527 292.5,7.5C 295.737,7.85916 297.903,9.52582 299,12.5C 299.333,19.1667 299.667,25.8333 300,32.5C 300.21,34.0581 300.71,35.3915 301.5,36.5C 301.263,37.791 301.596,38.791 302.5,39.5C 305.188,44.5513 307.521,49.5513 309.5,54.5C 310.836,56.3068 312.503,57.8068 314.5,59C 313.833,59.3333 313.167,59.6667 312.5,60C 314.895,62.6396 317.395,65.1396 320,67.5C 320.333,67.1667 320.667,66.8333 321,66.5C 322.104,69.7212 323.937,72.3878 326.5,74.5C 327.072,75.9733 327.905,77.3066 329,78.5C 334.028,71.2393 340.528,65.7393 348.5,62C 373.419,48.2683 399.086,45.1016 425.5,52.5C 428.124,53.4942 430.79,54.4942 433.5,55.5C 449.596,62.3059 464.596,70.9726 478.5,81.5C 479.583,80.635 479.749,79.635 479,78.5C 476.388,73.6098 474.054,68.6098 472,63.5C 471.316,62.2161 471.483,61.0495 472.5,60C 466.091,49.4337 462.924,37.9337 463,25.5C 464.667,23.1667 466.333,20.8333 468,18.5C 468.333,18.8333 468.667,19.1667 469,19.5C 471.795,17.7068 474.295,15.5402 476.5,13C 481.188,12.0805 484.688,9.58049 487,5.5C 487.667,8.16667 488.333,8.16667 489,5.5C 489.333,5.83333 489.667,6.16667 490,6.5C 492.887,5.45218 495.387,3.78551 497.5,1.5C 498.773,1.74552 499.94,1.74552 501,1.5C 501.464,0.905578 501.631,0.238911 501.5,-0.5C 501.833,-0.5 502.167,-0.5 502.5,-0.5C 502.833,0.833333 503.167,0.833333 503.5,-0.5C 511.167,-0.5 518.833,-0.5 526.5,-0.5C 508.039,5.5633 490.706,14.0633 474.5,25C 472.129,26.7432 470.795,29.0766 470.5,32C 476.836,51.5375 484.003,70.7042 492,89.5C 497.129,97.4243 501.462,105.758 505,114.5C 505.893,115.081 506.893,115.415 508,115.5C 523.434,109.869 538.934,104.369 554.5,99C 561.23,96.2178 567.73,93.0511 574,89.5C 575.473,81.3442 574.639,73.3442 571.5,65.5C 569.507,50.9091 564.34,37.2425 556,24.5C 552.198,16.2526 548.698,7.91928 545.5,-0.5C 548.167,-0.5 550.833,-0.5 553.5,-0.5C 554.551,0.222348 555.218,1.22235 555.5,2.5C 555.687,4.56429 556.187,6.56429 557,8.5C 558.854,12.9622 561.021,16.6288 563.5,19.5C 564.268,20.2625 564.768,21.2625 565,22.5C 565.333,22.1667 565.667,21.8333 566,21.5C 564.961,25.0507 565.961,28.0507 569,30.5C 571.479,28.6859 573.979,27.0192 576.5,25.5C 579.787,24.9446 582.287,23.278 584,20.5C 584.414,20.9574 584.914,21.2907 585.5,21.5C 587.604,20.4805 589.604,19.4805 591.5,18.5C 593.124,18.6399 594.29,17.9733 595,16.5C 596.016,17.6341 596.683,17.3008 597,15.5C 598.16,17.797 599.16,17.4637 600,14.5C 601.16,16.797 602.16,16.4637 603,13.5C 603.308,14.3081 603.808,14.9747 604.5,15.5C 607.378,13.0311 610.545,12.3644 614,13.5C 616.557,12.4579 618.89,11.1245 621,9.5C 622.395,10.8146 623.395,10.4812 624,8.5C 624.308,9.30806 624.808,9.97473 625.5,10.5C 627.922,10.2549 630.255,10.2549 632.5,10.5C 633.251,9.62402 633.751,8.62402 634,7.5C 634.949,10.1997 636.783,11.033 639.5,10C 638.304,9.34569 638.304,8.84569 639.5,8.5C 640.77,9.56218 641.937,10.5622 643,11.5C 660.336,11.0278 675.836,15.5278 689.5,25C 697.2,29.1979 704.2,34.3645 710.5,40.5C 711.899,41.8897 713.566,42.8897 715.5,43.5C 715.5,43.8333 715.5,44.1667 715.5,44.5C 714.167,44.8333 714.167,45.1667 715.5,45.5C 715.5,51.8333 715.5,58.1667 715.5,64.5C 709.26,65.1907 703.593,67.3574 698.5,71C 694.833,74 691.167,77 687.5,80C 684.207,83.4466 681.04,86.9466 678,90.5C 669.83,103.081 662.497,116.081 656,129.5C 653.04,135.859 651.706,142.525 652,149.5C 654.5,151.333 657,153.167 659.5,155C 670.695,166.86 681.861,178.693 693,190.5C 698.494,197.487 703.494,204.82 708,212.5C 710.373,210.88 712.873,209.546 715.5,208.5C 715.5,211.167 715.5,213.833 715.5,216.5C 692.953,234.049 688.787,255.382 703,280.5C 706.376,284.271 710.542,286.604 715.5,287.5C 715.5,289.833 715.5,292.167 715.5,294.5C 714.833,294.5 714.167,294.5 713.5,294.5C 711.708,294.634 710.042,294.301 708.5,293.5C 700.602,290.104 694.769,284.437 691,276.5C 683.717,254.55 687.551,234.55 702.5,216.5C 695.553,207.046 688.386,197.713 681,188.5C 667.272,173.089 652.105,159.589 635.5,148C 630.727,145.354 625.727,143.521 620.5,142.5C 620.5,141.5 620.5,140.5 620.5,139.5C 618.801,139.66 617.134,139.494 615.5,139C 609.973,135.736 604.306,132.736 598.5,130C 591.87,128.837 585.204,128.004 578.5,127.5C 572.756,126.117 567.09,126.45 561.5,128.5C 537.896,135.939 522.062,151.273 514,174.5C 508.195,182.669 504.029,191.669 501.5,201.5C 498.894,202.652 496.227,202.818 493.5,202C 492.624,199.624 490.958,198.124 488.5,197.5C 485.007,188.837 479.174,182.171 471,177.5C 470.517,176.552 470.351,175.552 470.5,174.5C 467.163,174.323 464.163,173.323 461.5,171.5C 461.5,170.5 461.5,169.5 461.5,168.5C 454.09,166.308 446.757,163.808 439.5,161C 416.181,159.109 395.515,165.443 377.5,180C 375.826,183.519 373.159,185.685 369.5,186.5C 368.478,190.724 366.311,194.391 363,197.5C 349.11,221.068 345.776,246.068 353,272.5C 358.812,283.478 365.979,293.478 374.5,302.5C 375.325,303.386 376.325,303.719 377.5,303.5C 377.5,304.5 377.5,305.5 377.5,306.5C 391.516,318.01 407.516,326.177 425.5,331C 449.786,333.183 471.453,326.85 490.5,312C 495.552,307.217 499.885,301.883 503.5,296C 505.217,294.441 507.217,293.608 509.5,293.5C 517.722,315.4 532.389,331.734 553.5,342.5C 556.421,345.219 557.088,348.386 555.5,352C 534.742,362.492 520.742,378.659 513.5,400.5C 521.462,401.64 529.462,402.307 537.5,402.5C 538.858,382.605 548.525,368.438 566.5,360C 571.455,358.782 576.455,358.449 581.5,359C 582.022,359.561 582.355,360.228 582.5,361C 576.657,368.012 570.99,375.178 565.5,382.5C 578.105,383.904 590.272,382.237 602,377.5C 606.24,384.956 611.24,391.956 617,398.5C 620.047,401.883 623.38,404.883 627,407.5C 627.772,407.355 628.439,407.022 629,406.5C 629.935,404.091 630.435,401.591 630.5,399C 629.067,389.955 628.734,380.955 629.5,372C 626.2,366.125 627.867,364.292 634.5,366.5C 655.511,386.147 661.345,409.481 652,436.5C 645.696,450.748 635.196,460.582 620.5,466C 626.037,479.085 627.537,492.585 625,506.5C 645.863,495.306 661.196,478.972 671,457.5C 681.766,428.963 678.433,402.296 661,377.5C 658.961,375.126 656.628,373.126 654,371.5C 653.106,368.867 651.606,366.7 649.5,365C 649.667,364.5 649.833,364 650,363.5C 674.173,357.496 696.006,346.83 715.5,331.5C 715.5,335.167 715.5,338.833 715.5,342.5C 714.307,344.3 713.14,345.967 712,347.5C 710.984,346.366 710.317,346.699 710,348.5C 709.667,347.833 709.333,347.167 709,346.5C 705.626,350.102 701.793,353.102 697.5,355.5C 697.167,354.167 696.833,354.167 696.5,355.5C 695.732,356.263 695.232,357.263 695,358.5C 694,358.167 693,357.833 692,357.5C 687.836,359.581 683.836,361.914 680,364.5C 674.59,365.585 669.09,367.419 663.5,370C 664.665,371.084 665.998,371.917 667.5,372.5C 672.135,378.759 675.802,385.426 678.5,392.5C 680.6,398.45 682.266,403.784 683.5,408.5C 687.286,432.135 683.452,454.135 672,474.5C 666.999,480.998 661.833,487.331 656.5,493.5C 650.273,499.14 643.273,504.64 635.5,510C 631.098,512.006 627.431,514.006 624.5,516C 620.192,532.299 611.192,545.299 597.5,555C 582.083,559.502 566.749,559.002 551.5,553.5C 549.675,556.423 549.341,559.423 550.5,562.5C 549.662,562.842 549.328,563.508 549.5,564.5C 549.634,566.292 549.301,567.958 548.5,569.5C 548.5,570.5 548.5,571.5 548.5,572.5C 548.007,574.806 547.674,577.139 547.5,579.5C 547.582,584.776 546.582,590.11 544.5,595.5C 543.566,596.568 543.232,597.901 543.5,599.5C 542.711,599.783 542.044,600.283 541.5,601C 542.598,601.77 542.598,602.603 541.5,603.5C 540.833,603.5 540.5,603.833 540.5,604.5C 540.423,605.75 539.756,606.583 538.5,607C 538.728,607.399 539.062,607.565 539.5,607.5C 539.5,607.833 539.5,608.167 539.5,608.5C 537.178,609.802 535.845,611.802 535.5,614.5C 534.167,615.167 533.167,616.167 532.5,617.5C 531.5,617.833 530.833,618.5 530.5,619.5C 529.011,621.805 527.511,624.138 526,626.5C 517.203,634.803 507.703,642.136 497.5,648.5C 496.508,648.328 495.842,648.662 495.5,649.5C 495.5,649.833 495.5,650.167 495.5,650.5C 495.167,650.5 494.833,650.5 494.5,650.5C 493.5,650.833 492.833,651.5 492.5,652.5C 487.314,654.75 482.314,657.917 477.5,662C 473.986,663.562 470.319,664.395 466.5,664.5C 464.797,673.05 460.13,679.55 452.5,684C 453.416,684.278 454.082,684.778 454.5,685.5C 453.833,685.5 453.5,685.833 453.5,686.5C 454.833,687.833 456.167,687.833 457.5,686.5C 462.031,681.488 467.531,678.155 474,676.5C 476.166,678.121 478.666,678.955 481.5,679C 485.895,682.357 487.728,686.857 487,692.5C 493.04,695.247 495.373,699.913 494,706.5C 493.434,708.723 492.6,710.723 491.5,712.5C 489.856,712.81 488.856,713.81 488.5,715.5C 485.833,715.5 483.167,715.5 480.5,715.5C 483.565,710.973 485.231,705.973 485.5,700.5C 479.211,699.652 476.711,695.985 478,689.5C 476.666,685.896 474.166,684.729 470.5,686C 467.537,687.961 464.871,690.294 462.5,693C 453.972,695.206 447.472,700.04 443,707.5C 442.57,710.192 442.737,712.859 443.5,715.5C 440.833,715.5 438.167,715.5 435.5,715.5C 435.094,707.652 433.76,699.985 431.5,692.5C 430.167,692.5 428.833,692.5 427.5,692.5C 427.736,695.226 426.903,697.559 425,699.5C 425.386,705.457 423.886,710.791 420.5,715.5C 416.5,715.5 412.5,715.5 408.5,715.5C 411.804,713.027 414.638,710.027 417,706.5C 417.219,700.197 418.219,694.197 420,688.5C 413.825,686.001 410.325,681.501 409.5,675C 411.141,673.354 410.807,672.354 408.5,672C 409.214,670.657 408.88,669.324 407.5,668C 402.949,666.785 398.282,666.119 393.5,666C 390.726,663.529 387.56,661.695 384,660.5C 378.403,661.555 373.237,663.555 368.5,666.5C 364.611,664.139 360.444,662.472 356,661.5C 353.734,662.956 351.234,663.79 348.5,664C 347.667,665.5 346.5,666.667 345,667.5C 339.586,665.249 334.086,663.249 328.5,661.5C 326.423,661.692 324.423,662.192 322.5,663C 319.926,665.243 317.092,667.076 314,668.5C 311,666.833 308,665.167 305,663.5C 300.381,665.646 296.048,668.312 292,671.5C 290.786,674.189 290.619,676.856 291.5,679.5C 289.716,683.366 288.883,687.366 289,691.5C 293.288,692.571 297.455,693.904 301.5,695.5C 299.619,700.982 300.619,705.815 304.5,710C 309.294,710.555 313.794,710.388 318,709.5C 320.265,710.916 321.431,712.916 321.5,715.5C 313.167,715.5 304.833,715.5 296.5,715.5C 296.539,713.641 295.706,712.308 294,711.5C 293.667,708.833 293.333,706.167 293,703.5C 292.333,702.833 291.667,702.167 291,701.5C 289.414,706.017 288.58,710.684 288.5,715.5C 285.5,715.5 282.5,715.5 279.5,715.5C 280.684,714.312 280.684,713.145 279.5,712C 265.899,709.616 260.733,701.783 264,688.5C 259.855,686.241 255.689,683.907 251.5,681.5C 250.239,678.736 248.405,676.403 246,674.5C 242.321,666.939 240.154,658.939 239.5,650.5C 238.914,650.709 238.414,651.043 238,651.5C 230.181,648.841 223.015,645.008 216.5,640C 210.279,633.779 204.113,627.613 198,621.5C 191.202,607.471 185.702,592.638 181.5,577C 181.833,576.667 182.167,576.333 182.5,576C 181.692,575.692 181.025,575.192 180.5,574.5C 180.623,571.289 180.623,568.122 180.5,565C 179.13,563.559 178.13,561.892 177.5,560C 177.419,557.24 177.753,554.407 178.5,551.5C 177.825,548.651 176.158,546.651 173.5,545.5C 165.135,547.791 156.969,549.791 149,551.5C 134.616,549.548 124.116,542.048 117.5,529C 115.266,521.226 113.099,513.059 111,504.5C 109.64,501.977 107.807,499.977 105.5,498.5C 105.262,496.596 104.262,495.262 102.5,494.5C 101.737,493.732 100.737,493.232 99.5,493C 100.738,492.31 100.738,491.81 99.5,491.5C 99.5,490.167 98.8333,489.5 97.5,489.5C 97.4361,488.635 97.1027,487.635 96.5,486.5C 96.5,485.167 95.8333,484.5 94.5,484.5C 93.8897,482.566 92.8897,480.899 91.5,479.5C 90.1626,475.327 88.1626,471.494 85.5,468C 86.6341,466.984 86.3008,466.317 84.5,466C 84.9574,465.586 85.2907,465.086 85.5,464.5C 84.8333,464.167 84.1667,463.833 83.5,463.5C 84.2554,460.781 83.5888,458.281 81.5,456C 81.8333,455 82.1667,454 82.5,453C 76.7911,432.142 78.9577,411.642 89,391.5C 91.5,388.333 94,385.167 96.5,382C 89.0855,378.358 81.4188,375.191 73.5,372.5C 72.791,371.596 71.791,371.263 70.5,371.5C 62.2747,367.72 52.9414,364.72 42.5,362.5C 39.994,362.335 38.1607,363.335 37,365.5C 36.6667,364.833 36.3333,364.167 36,363.5C 35.2588,364.641 34.4255,364.641 33.5,363.5C 28.2938,365.018 23.1271,366.685 18,368.5C 15.8171,368.478 14.3171,367.478 13.5,365.5C 13.7373,364.209 13.404,363.209 12.5,362.5C 11.1847,360.024 10.018,360.358 9,363.5C 8.02552,361.122 7.35886,361.456 7,364.5C 6.62325,363.058 5.78991,362.058 4.5,361.5C 3.83333,359.833 3.16667,358.167 2.5,356.5C 1.89459,354.519 0.894586,354.185 -0.5,355.5C -0.5,349.5 -0.5,343.5 -0.5,337.5C 0.461384,339.265 0.794717,341.265 0.5,343.5C 5.6639,344.158 8.83057,347.158 10,352.5C 12.0662,349.868 14.5662,349.201 17.5,350.5C 19.2866,352.858 20.2866,355.525 20.5,358.5C 30.327,355.853 40.327,355.019 50.5,356C 67.9002,361.911 85.0669,368.411 102,375.5C 108.14,372.447 114.64,370.614 121.5,370C 126.646,367.905 131.646,365.739 136.5,363.5C 133.693,349.432 137.526,337.432 148,327.5C 148.81,313.866 154.31,302.532 164.5,293.5C 189.967,271.084 219.634,257.751 253.5,253.5C 235.72,203.905 251.054,169.072 299.5,149C 306.411,147.51 312.744,148.677 318.5,152.5C 324.5,140.829 328.5,128.496 330.5,115.5C 331.996,109.395 332.663,103.062 332.5,96.5C 325.679,85.1705 317.179,75.1705 307,66.5C 301.478,60.7957 297.478,54.129 295,46.5C 293.048,37.9067 291.548,29.24 290.5,20.5C 288.559,23.3342 285.893,24.1675 282.5,23C 281.726,20.595 281.226,18.095 281,15.5C 277.197,18.5746 274.364,17.9079 272.5,13.5C 272.68,12.4461 273.013,11.4461 273.5,10.5C 257.193,7.75543 241.193,9.25543 225.5,15C 212.213,21.5864 198.879,28.253 185.5,35C 170.609,44.2724 156.275,54.2724 142.5,65C 138.868,69.6337 134.868,73.967 130.5,78C 132.07,79.3968 133.404,80.8968 134.5,82.5C 138.58,87.568 138.413,92.568 134,97.5C 124.472,109.385 112.972,118.551 99.5,125C 98.6372,128.726 96.9705,132.059 94.5,135C 95.1667,135.667 95.8333,135.667 96.5,135C 109.654,123.089 124.82,118.922 142,122.5C 147.913,125.54 153.747,128.706 159.5,132C 161.684,134.016 163.684,136.183 165.5,138.5C 169.477,135.611 173.811,134.611 178.5,135.5C 179.747,137.006 179.747,138.506 178.5,140C 169.041,142.969 161.041,148.136 154.5,155.5C 150.909,160.564 149.576,166.231 150.5,172.5C 157.121,170.089 163.788,170.256 170.5,173C 172.357,174.182 173.357,175.849 173.5,178C 169.498,187.837 162.832,195.337 153.5,200.5C 149.73,200.038 147.23,198.038 146,194.5C 144.691,189.934 144.191,185.267 144.5,180.5C 137.067,181.217 131.067,184.551 126.5,190.5C 119.936,198.299 116.103,207.299 115,217.5C 111.221,221.682 108.388,221.016 106.5,215.5C 107.81,212.794 108.81,209.961 109.5,207C 89.2435,198.67 80.0768,183.503 82,161.5C 82.6979,153.729 85.5312,146.896 90.5,141C 89.8333,140.333 89.1667,140.333 88.5,141C 85,144.5 81.5,148 78,151.5C 73.3571,167.482 65.1904,181.149 53.5,192.5C 56.5053,196.506 59.0053,200.84 61,205.5C 62.7256,212.111 64.8923,218.444 67.5,224.5C 68.5,230.5 69.5,236.5 70.5,242.5C 70.3347,246.182 70.5014,249.848 71,253.5C 71.5133,252.473 72.0133,251.473 72.5,250.5C 72.5,249.5 72.5,248.5 72.5,247.5C 73.552,247.649 74.552,247.483 75.5,247C 79.3939,243.596 83.3939,240.429 87.5,237.5C 92.1077,234.817 97.1077,233.984 102.5,235C 105.833,236 109.167,237 112.5,238C 115.897,240.696 119.564,242.862 123.5,244.5C 137.473,252.129 146.973,263.462 152,278.5C 156.139,294.267 150.972,305.434 136.5,312C 132.916,313.292 129.249,314.292 125.5,315C 99.7658,315.053 81.2658,303.553 70,280.5C 67.2154,273.168 66.8821,265.835 69,258.5C 64.9679,266.098 58.8013,269.265 50.5,268C 49.1387,269.584 48.472,271.418 48.5,273.5C 42.4467,282.961 34.1133,285.628 23.5,281.5C 20.8947,279.663 18.728,277.33 17,274.5C 13.2582,281.289 7.42484,284.289 -0.5,283.5C -0.5,280.5 -0.5,277.5 -0.5,274.5C 3.15872,277.419 6.49205,277.085 9.5,273.5C 11,270.5 12.5,267.5 14,264.5C 15.3333,263.833 16.6667,263.167 18,262.5C 21.3811,266.759 24.8811,270.926 28.5,275C 35.3075,277.285 40.1409,275.118 43,268.5C 43.2587,263.733 42.9254,259.066 42,254.5C 43.3876,253.446 44.8876,253.28 46.5,254C 56.9814,264.24 62.648,261.907 63.5,247C 61.9834,231.073 57.8167,215.906 51,201.5C 46.2368,192.79 39.4034,186.29 30.5,182C 24.6738,181.794 18.8405,181.961 13,182.5C 8.33738,182.632 3.83738,181.965 -0.5,180.5C -0.5,178.167 -0.5,175.833 -0.5,173.5C 6.81495,174.415 14.1483,174.582 21.5,174C 11.6474,162.742 12.314,152.075 23.5,142C 25.699,140.303 28.0324,138.803 30.5,137.5C 31.4557,126.519 32.1224,115.519 32.5,104.5C 32.0087,99.5873 32.0087,94.754 32.5,90C 31.3901,85.5632 30.2235,85.7299 29,90.5C 22.1131,98.1002 13.9464,99.6002 4.5,95C 2.96252,93.2927 1.29585,91.7927 -0.5,90.5C -0.5,84.1667 -0.5,77.8333 -0.5,71.5C 3.53516,63.8588 9.86849,61.3588 18.5,64C 26.8795,66.2296 31.3795,71.7296 32,80.5C 32.9076,76.5113 32.241,72.8447 30,69.5C 23.2992,56.8729 13.1326,53.2063 -0.5,58.5C -0.5,56.1667 -0.5,53.8333 -0.5,51.5C 0.14987,51.1961 0.816537,50.8627 1.5,50.5C 2.60561,43.3449 2.60561,36.1783 1.5,29C 1.7529,20.6072 3.08623,12.4406 5.5,4.5C 6.038,2.88277 6.37133,1.2161 6.5,-0.5 Z M 628.5,49.5 C 632.142,50.0804 635.809,50.5804 639.5,51C 648.119,53.4456 656.786,56.7789 665.5,61C 669.311,64.7399 673.644,67.7399 678.5,70C 679.87,71.4413 680.87,73.108 681.5,75C 676.225,79.6007 671.725,84.7674 668,90.5C 661.713,80.3362 653.047,76.6696 642,79.5C 637.917,83.0062 635.083,86.8395 633.5,91C 631.193,91.3542 630.859,92.3542 632.5,94C 632.182,97.1075 631.182,99.9408 629.5,102.5C 629.846,103.696 630.346,103.696 631,102.5C 631.167,103.167 631.333,103.833 631.5,104.5C 631.414,109.444 630.747,114.444 629.5,119.5C 630.177,122.185 630.177,125.018 629.5,128C 632.028,129.017 632.028,130.184 629.5,131.5C 629.846,132.696 630.346,132.696 631,131.5C 631.798,133.259 631.631,134.926 630.5,136.5C 629.893,136.376 629.56,136.043 629.5,135.5C 614.286,126.866 599.953,121.199 586.5,118.5C 584.919,117.421 583.253,117.421 581.5,118.5C 580.328,118.081 579.328,117.415 578.5,116.5C 578.167,117.167 577.833,117.833 577.5,118.5C 576.808,117.975 576.308,117.308 576,116.5C 575.581,117.672 574.915,118.672 574,119.5C 570.086,119.29 566.253,119.29 562.5,119.5C 561.469,118.751 560.302,118.085 559,117.5C 557.333,118.733 555.833,120.067 554.5,121.5C 553.833,121.833 553.167,122.167 552.5,122.5C 551.833,119.833 551.167,119.833 550.5,122.5C 549.29,122.932 548.29,123.599 547.5,124.5C 544.367,127.253 540.367,129.42 535.5,131C 535.833,131.333 536.167,131.667 536.5,132C 527.921,137.744 520.921,144.911 515.5,153.5C 514.743,150.01 513.743,146.677 512.5,143.5C 512.918,142.778 513.584,142.278 514.5,142C 512.192,140.412 511.525,138.412 512.5,136C 509.833,135.333 509.833,134.667 512.5,134C 510.431,133.676 510.098,132.842 511.5,131.5C 511.154,130.304 510.654,130.304 510,131.5C 509.069,129.541 508.236,127.541 507.5,125.5C 510.677,123.994 514.177,122.327 518,120.5C 519.609,121.15 521.109,120.65 522.5,119C 525.768,117.85 529.101,117.016 532.5,116.5C 533.937,115.275 535.604,114.275 537.5,113.5C 538.192,114.025 538.692,114.692 539,115.5C 539.278,114.584 539.778,113.918 540.5,113.5C 542.599,112.388 544.933,111.721 547.5,111.5C 550.081,110.512 552.748,109.512 555.5,108.5C 558.063,107.931 560.23,106.597 562,104.5C 562.333,105.167 562.667,105.833 563,106.5C 563.278,105.584 563.778,104.918 564.5,104.5C 565.965,103.263 567.632,102.263 569.5,101.5C 570.566,100.308 571.399,100.641 572,102.5C 573.395,99.8325 575.395,97.8325 578,96.5C 578.333,96.8333 578.667,97.1667 579,97.5C 581.096,94.9163 582.929,92.7496 584.5,91C 583.833,90.6667 583.167,90.3333 582.5,90C 583.804,89.196 584.471,88.0293 584.5,86.5C 582.927,74.9687 580.594,63.6354 577.5,52.5C 578.885,51.3862 580.385,50.3862 582,49.5C 582.308,50.3081 582.808,50.9747 583.5,51.5C 584.696,51.1543 584.696,50.6543 583.5,50C 585.473,49.5045 587.473,49.3379 589.5,49.5C 590.635,47.9122 591.969,47.5788 593.5,48.5C 597.415,47.403 601.415,46.7364 605.5,46.5C 607.641,46.6132 609.475,47.2799 611,48.5C 611.308,47.6919 611.808,47.0253 612.5,46.5C 615.269,46.8595 618.269,47.5262 621.5,48.5C 623.156,46.9776 624.323,47.311 625,49.5C 626.292,48.2089 627.458,48.2089 628.5,49.5 Z M 421.5,338.5 C 423.183,338.619 424.85,338.952 426.5,339.5C 454.002,340.78 477.668,333.113 497.5,316.5C 499.833,313.833 502.167,311.167 504.5,308.5C 506.026,309.105 507.026,310.271 507.5,312C 507.167,312.333 506.833,312.667 506.5,313C 508.07,315.07 510.07,316.57 512.5,317.5C 514.115,320.45 516.115,323.116 518.5,325.5C 519.5,325.833 520.167,326.5 520.5,327.5C 527.729,335.551 536.062,342.384 545.5,348C 541.341,351.247 537.008,354.247 532.5,357C 518.718,369.315 509.718,383.482 505.5,399.5C 505.106,397.29 503.773,395.957 501.5,395.5C 493.968,386.801 485.634,378.967 476.5,372C 462.688,366.03 448.354,361.363 433.5,358C 418.99,356.422 404.823,354.256 391,351.5C 368.92,351.448 346.753,351.615 324.5,352C 315.452,353.286 306.452,354.786 297.5,356.5C 306.788,347.41 316.288,338.41 326,329.5C 331.578,321.251 337.912,313.584 345,306.5C 347.26,301.049 350.26,296.049 354,291.5C 364.174,307.73 377.674,319.564 394.5,327C 395.893,328.171 396.727,329.671 397,331.5C 398.193,329.557 399.693,329.724 401.5,332C 405.995,333.718 410.662,335.051 415.5,336C 416.126,336.75 416.626,337.584 417,338.5C 418.616,337.199 420.116,337.199 421.5,338.5 Z"/></g>
<g><path style="opacity:1" fill="#92b8f9" d="M 13.5,-0.5 C 25.5,-0.5 37.5,-0.5 49.5,-0.5C 43.8495,8.80669 39.8495,18.8067 37.5,29.5C 37.2795,32.7911 38.6128,35.2911 41.5,37C 48.3389,42.0604 54.5056,41.5604 60,35.5C 67.1899,24.121 73.0233,12.121 77.5,-0.5C 78.8333,-0.5 80.1667,-0.5 81.5,-0.5C 87.8803,6.38226 93.7136,13.7156 99,21.5C 106.279,36.5255 111.779,51.8588 115.5,67.5C 101.864,58.9139 90.8636,61.4139 82.5,75C 72.504,76.2329 62.504,77.3995 52.5,78.5C 48.0177,78.5402 43.6844,77.8735 39.5,76.5C 39.1781,68.6783 36.5114,61.845 31.5,56C 25.0856,51.8146 18.0856,49.3146 10.5,48.5C 8.38825,31.93 9.38825,15.5967 13.5,-0.5 Z"/></g>
<g><path style="opacity:1" fill="#562e0f" d="M 49.5,-0.5 C 52.5,-0.5 55.5,-0.5 58.5,-0.5C 54.3595,9.25536 50.0262,18.922 45.5,28.5C 46.9799,32.0502 49.6466,33.2169 53.5,32C 60.3162,21.868 65.6495,11.0347 69.5,-0.5C 72.1667,-0.5 74.8333,-0.5 77.5,-0.5C 73.0233,12.121 67.1899,24.121 60,35.5C 54.5056,41.5604 48.3389,42.0604 41.5,37C 38.6128,35.2911 37.2795,32.7911 37.5,29.5C 39.8495,18.8067 43.8495,8.80669 49.5,-0.5 Z"/></g>
<g><path style="opacity:1" fill="#91b6f5" d="M 58.5,-0.5 C 62.1667,-0.5 65.8333,-0.5 69.5,-0.5C 65.6495,11.0347 60.3162,21.868 53.5,32C 49.6466,33.2169 46.9799,32.0502 45.5,28.5C 50.0262,18.922 54.3595,9.25536 58.5,-0.5 Z"/></g>
<g><path style="opacity:1" fill="#cbf091" d="M 92.5,-0.5 C 94.8333,-0.5 97.1667,-0.5 99.5,-0.5C 98.6373,1.42136 97.9707,3.42136 97.5,5.5C 95.8333,3.5 94.1667,1.5 92.5,-0.5 Z"/></g>
<g><path style="opacity:1" fill="#fdc1cc" d="M 99.5,-0.5 C 107.167,-0.5 114.833,-0.5 122.5,-0.5C 127.75,11.2029 124.75,20.3695 113.5,27C 112.207,27.49 110.873,27.6567 109.5,27.5C 106.516,19.5261 102.516,12.1928 97.5,5.5C 97.9707,3.42136 98.6373,1.42136 99.5,-0.5 Z"/></g>
<g><path style="opacity:1" fill="#cafc90" d="M 122.5,-0.5 C 128.833,-0.5 135.167,-0.5 141.5,-0.5C 143.194,18.9162 142.528,38.2495 139.5,57.5C 135.71,61.7918 131.71,65.9585 127.5,70C 126.552,70.4828 125.552,70.6495 124.5,70.5C 121.325,59.4683 117.991,48.4683 114.5,37.5C 113.127,33.9628 111.46,30.6295 109.5,27.5C 110.873,27.6567 112.207,27.49 113.5,27C 124.75,20.3695 127.75,11.2029 122.5,-0.5 Z"/></g>
<g><path style="opacity:0.008" fill="#532a04" d="M 149.5,-0.5 C 149.833,-0.5 150.167,-0.5 150.5,-0.5C 150.315,0.170143 149.981,0.170143 149.5,-0.5 Z"/></g>
<g><path style="opacity:0.409" fill="#bbe87a" d="M 236.5,-0.5 C 236.833,-0.5 237.167,-0.5 237.5,-0.5C 238.167,0.833333 238.833,0.833333 239.5,-0.5C 242.833,-0.5 246.167,-0.5 249.5,-0.5C 249.5,-0.166667 249.5,0.166667 249.5,0.5C 245.59,0.995412 241.423,1.99541 237,3.5C 235.97,3.16389 235.47,2.49722 235.5,1.5C 236.338,1.15829 236.672,0.491622 236.5,-0.5 Z"/></g>
<g><path style="opacity:0.004" fill="#532a04" d="M 276.5,-0.5 C 276.833,-0.5 277.167,-0.5 277.5,-0.5C 277.315,0.170143 276.981,0.170143 276.5,-0.5 Z"/></g>
<g><path style="opacity:0.999" fill="#fdfcfc" d="M 526.5,-0.5 C 532.833,-0.5 539.167,-0.5 545.5,-0.5C 548.698,7.91928 552.198,16.2526 556,24.5C 564.34,37.2425 569.507,50.9091 571.5,65.5C 574.639,73.3442 575.473,81.3442 574,89.5C 567.73,93.0511 561.23,96.2178 554.5,99C 538.934,104.369 523.434,109.869 508,115.5C 506.893,115.415 505.893,115.081 505,114.5C 501.462,105.758 497.129,97.4243 492,89.5C 484.003,70.7042 476.836,51.5375 470.5,32C 470.795,29.0766 472.129,26.7432 474.5,25C 490.706,14.0633 508.039,5.5633 526.5,-0.5 Z"/></g>
<g><path style="opacity:0.012" fill="#532a04" d="M 556.5,1.5 C 557.833,2.16667 557.833,2.16667 556.5,1.5 Z"/></g>
<g><path style="opacity:1" fill="#f7f5f3" d="M -0.5,4.5 C 1.5,4.5 3.5,4.5 5.5,4.5C 3.08623,12.4406 1.7529,20.6072 1.5,29C 2.60561,36.1783 2.60561,43.3449 1.5,50.5C 0.816537,50.8627 0.14987,51.1961 -0.5,51.5C -0.5,35.8333 -0.5,20.1667 -0.5,4.5 Z"/></g>
<g><path style="opacity:0.503" fill="#e7e0da" d="M 555.5,2.5 C 555.833,2.5 556.167,2.5 556.5,2.5C 559.65,7.80478 561.984,13.4715 563.5,19.5C 561.021,16.6288 558.854,12.9622 557,8.5C 556.187,6.56429 555.687,4.56429 555.5,2.5 Z"/></g>
<g><path style="opacity:1" fill="#cafd90" d="M 332.5,96.5 C 331.004,102.605 330.337,108.938 330.5,115.5C 328.5,128.496 324.5,140.829 318.5,152.5C 312.744,148.677 306.411,147.51 299.5,149C 251.054,169.072 235.72,203.905 253.5,253.5C 219.634,257.751 189.967,271.084 164.5,293.5C 154.31,302.532 148.81,313.866 148,327.5C 137.526,337.432 133.693,349.432 136.5,363.5C 131.646,365.739 126.646,367.905 121.5,370C 114.64,370.614 108.14,372.447 102,375.5C 85.0669,368.411 67.9002,361.911 50.5,356C 40.327,355.019 30.327,355.853 20.5,358.5C 20.2866,355.525 19.2866,352.858 17.5,350.5C 14.5662,349.201 12.0662,349.868 10,352.5C 8.83057,347.158 5.6639,344.158 0.5,343.5C 0.794717,341.265 0.461384,339.265 -0.5,337.5C -0.5,319.5 -0.5,301.5 -0.5,283.5C 7.42484,284.289 13.2582,281.289 17,274.5C 18.728,277.33 20.8947,279.663 23.5,281.5C 22.1388,285.709 21.1388,290.042 20.5,294.5C 16.2525,292.706 13.4192,294.039 12,298.5C 11.7276,305.512 12.0609,312.512 13,319.5C 15.112,321.922 17.112,321.922 19,319.5C 19.3404,315.442 20.0071,311.442 21,307.5C 23.3333,308.833 25.6667,308.833 28,307.5C 28.3272,301.512 28.8272,295.846 29.5,290.5C 32.0237,292.19 34.0237,294.357 35.5,297C 37.1667,297.667 38.8333,297.667 40.5,297C 42.0528,292.937 43.5528,288.77 45,284.5C 47.5002,286.536 50.1669,286.87 53,285.5C 53.6667,283.833 53.6667,282.167 53,280.5C 51.6106,277.974 50.1106,275.641 48.5,273.5C 48.472,271.418 49.1387,269.584 50.5,268C 58.8013,269.265 64.9679,266.098 69,258.5C 66.8821,265.835 67.2154,273.168 70,280.5C 81.2658,303.553 99.7658,315.053 125.5,315C 129.249,314.292 132.916,313.292 136.5,312C 150.972,305.434 156.139,294.267 152,278.5C 146.973,263.462 137.473,252.129 123.5,244.5C 124.058,243.21 125.058,242.377 126.5,242C 129.877,241.548 133.211,240.882 136.5,240C 141.13,237.338 145.797,234.672 150.5,232C 159.631,224.538 168.464,216.705 177,208.5C 181.057,203.442 184.724,198.108 188,192.5C 190.473,186.221 193.473,180.221 197,174.5C 199.074,165.937 200.907,157.604 202.5,149.5C 206.416,151.975 209.75,155.142 212.5,159C 216.5,161.667 220.5,164.333 224.5,167C 233.904,169.376 243.57,169.709 253.5,168C 267.48,160.687 273.647,149.187 272,133.5C 268.195,118.718 261.028,105.885 250.5,95C 246.159,91.8276 241.492,89.1609 236.5,87C 226.285,83.54 216.285,84.2066 206.5,89C 203.314,92.0209 199.98,94.8542 196.5,97.5C 194.955,100.814 193.621,104.147 192.5,107.5C 191.022,107.762 189.689,107.429 188.5,106.5C 179.779,94.9661 168.445,87.1327 154.5,83C 147.842,82.5004 141.175,82.3337 134.5,82.5C 133.404,80.8968 132.07,79.3968 130.5,78C 134.868,73.967 138.868,69.6337 142.5,65C 156.275,54.2724 170.609,44.2724 185.5,35C 198.879,28.253 212.213,21.5864 225.5,15C 241.193,9.25543 257.193,7.75543 273.5,10.5C 273.013,11.4461 272.68,12.4461 272.5,13.5C 274.364,17.9079 277.197,18.5746 281,15.5C 281.226,18.095 281.726,20.595 282.5,23C 285.893,24.1675 288.559,23.3342 290.5,20.5C 291.548,29.24 293.048,37.9067 295,46.5C 297.478,54.129 301.478,60.7957 307,66.5C 317.179,75.1705 325.679,85.1705 332.5,96.5 Z"/></g>
<g><path style="opacity:0.004" fill="#532a04" d="M 591.5,18.5 C 590.833,17.1667 590.833,17.1667 591.5,18.5 Z"/></g>
<g><path style="opacity:1" fill="#eebc95" d="M 623.5,18.5 C 630.833,18.5 638.167,18.5 645.5,18.5C 645.962,27.2797 645.295,35.9464 643.5,44.5C 634.705,41.7178 625.705,40.0511 616.5,39.5C 616.677,34.1335 616.344,28.8002 615.5,23.5C 615.833,22.5 616.167,21.5 616.5,20.5C 618.982,19.9329 621.316,19.2663 623.5,18.5 Z"/></g>
<g><path style="opacity:0.008" fill="#532a04" d="M 192.5,22.5 C 191.833,21.1667 191.833,21.1667 192.5,22.5 Z"/></g>
<g><path style="opacity:1" fill="#ecbb94" d="M 653.5,20.5 C 663.291,22.2994 672.624,25.4661 681.5,30C 679.299,38.6001 676.299,46.9335 672.5,55C 665.566,52.7889 658.733,49.9556 652,46.5C 652.138,37.8323 652.638,29.1656 653.5,20.5 Z"/></g>
<g><path style="opacity:1" fill="#edbb94" d="M 601.5,23.5 C 604.079,23.0833 606.246,23.75 608,25.5C 608.311,27.556 608.811,29.556 609.5,31.5C 608.423,33.7294 607.756,36.0628 607.5,38.5C 596.11,38.4643 585.11,40.4643 574.5,44.5C 573.502,42.5101 572.502,40.5101 571.5,38.5C 581.01,32.4114 591.01,27.4114 601.5,23.5 Z"/></g>
<g><path style="opacity:1" fill="#f48c86" d="M 231.5,23.5 C 233.857,23.3367 236.19,23.5034 238.5,24C 243.941,27.8068 249.108,31.9735 254,36.5C 255.583,41.1004 254.083,42.9337 249.5,42C 246.872,40.3745 244.539,38.3745 242.5,36C 241.5,35.3333 240.5,35.3333 239.5,36C 240.632,40.4132 240.799,44.9132 240,49.5C 239.107,50.0814 238.107,50.4148 237,50.5C 235.049,49.7154 233.215,48.7154 231.5,47.5C 230.672,51.7956 230.172,56.1289 230,60.5C 228.915,61.2931 227.748,61.9598 226.5,62.5C 223.404,60.8688 220.57,58.8688 218,56.5C 217.735,58.1626 218.235,59.6626 219.5,61C 218.439,64.124 217.439,67.2907 216.5,70.5C 214.307,73.0744 212.473,72.7411 211,69.5C 210.333,63.5 210.333,57.5 211,51.5C 213.84,45.2495 217.507,44.9162 222,50.5C 222.553,47.6408 222.386,44.8075 221.5,42C 221.466,37.6906 223.466,36.024 227.5,37C 229.081,37.7065 230.581,38.5399 232,39.5C 232.241,35.6102 231.741,31.7769 230.5,28C 230.773,26.4672 231.106,24.9672 231.5,23.5 Z"/></g>
<g><path style="opacity:1" fill="#cba4d8" d="M 527.5,11.5 C 534.661,11.8283 536.661,15.1616 533.5,21.5C 526.294,23.768 519.294,26.6013 512.5,30C 507.009,34.4408 505.176,39.9408 507,46.5C 509.536,49.7663 512.869,51.0996 517,50.5C 525.16,48.2506 533.327,45.9173 541.5,43.5C 545.369,43.8708 547.369,46.0374 547.5,50C 543.188,53.9887 538.188,56.6554 532.5,58C 527.351,61.9817 522.685,66.4817 518.5,71.5C 518.811,75.9797 521.145,78.813 525.5,80C 528,80.5 530.5,81 533,81.5C 536.367,80.1165 539.867,79.2832 543.5,79C 546.783,76.3638 550.283,74.1971 554,72.5C 559.023,73.5422 560.69,76.5422 559,81.5C 556.966,83.4418 554.8,85.2752 552.5,87C 544.129,90.2431 535.463,91.9097 526.5,92C 523.768,91.587 521.101,90.9203 518.5,90C 515.697,87.8725 512.864,85.7058 510,83.5C 509.86,80.9568 509.194,78.6234 508,76.5C 507.333,73.8333 507.333,71.1667 508,68.5C 509.591,66.0734 510.425,63.4067 510.5,60.5C 506.563,58.7916 502.73,56.7916 499,54.5C 498.158,51.3111 496.825,48.3111 495,45.5C 493.863,39.4367 495.363,34.1033 499.5,29.5C 498.45,27.8983 499.117,27.065 501.5,27C 502.376,25.414 503.376,23.914 504.5,22.5C 509.802,19.5905 515.469,17.2571 521.5,15.5C 523.711,14.3405 525.711,13.0072 527.5,11.5 Z"/></g>
<g><path style="opacity:0.004" fill="#532a04" d="M 576.5,25.5 C 575.833,24.1667 575.833,24.1667 576.5,25.5 Z"/></g>
<g><path style="opacity:1" fill="#edbb94" d="M 688.5,34.5 C 698.032,39.6222 706.032,46.6222 712.5,55.5C 703.987,59.0967 695.987,63.7633 688.5,69.5C 685.075,65.6191 681.075,62.4524 676.5,60C 678.956,57.5925 680.789,54.7591 682,51.5C 684.205,45.7724 686.372,40.1057 688.5,34.5 Z"/></g>
<g><path style="opacity:0.004" fill="#532a04" d="M 301.5,35.5 C 302.833,36.1667 302.833,36.1667 301.5,35.5 Z"/></g>
<g><path style="opacity:0.004" fill="#532a04" d="M 302.5,38.5 C 303.833,39.1667 303.833,39.1667 302.5,38.5 Z"/></g>
<g><path style="opacity:0.004" fill="#532a04" d="M 710.5,39.5 C 711.833,40.1667 711.833,40.1667 710.5,39.5 Z"/></g>
<g><path style="opacity:0.004" fill="#532a04" d="M 464.5,46.5 C 465.833,47.1667 465.833,47.1667 464.5,46.5 Z"/></g>
<g><path style="opacity:0.004" fill="#532a04" d="M 464.5,48.5 C 465.833,49.1667 465.833,49.1667 464.5,48.5 Z"/></g>
<g><path style="opacity:0.033" fill="#b2d66e" d="M 433.5,55.5 C 430.79,54.4942 428.124,53.4942 425.5,52.5C 428.277,51.4816 430.943,52.4816 433.5,55.5 Z"/></g>
<g><path style="opacity:0.004" fill="#532a04" d="M 309.5,53.5 C 310.833,54.1667 310.833,54.1667 309.5,53.5 Z"/></g>
<g><path style="opacity:1" fill="#8fb1ed" d="M -0.5,71.5 C -0.5,67.1667 -0.5,62.8333 -0.5,58.5C 13.1326,53.2063 23.2992,56.8729 30,69.5C 32.241,72.8447 32.9076,76.5113 32,80.5C 31.3795,71.7296 26.8795,66.2296 18.5,64C 9.86849,61.3588 3.53516,63.8588 -0.5,71.5 Z"/></g>
<g><path style="opacity:1" fill="#cafd8f" d="M 387.5,56.5 C 397.224,56.1411 406.891,56.6411 416.5,58C 443.452,65.637 466.286,79.8036 485,100.5C 491.556,110.493 497.556,120.826 503,131.5C 506.91,142.867 508.576,154.533 508,166.5C 503.673,174.668 499.839,183.001 496.5,191.5C 490.52,184.738 484.353,178.071 478,171.5C 476.176,156.026 471.176,141.692 463,128.5C 454.091,117.589 443.924,108.089 432.5,100C 404.695,86.4559 378.695,89.2893 354.5,108.5C 347.472,101.638 340.972,94.3047 335,86.5C 334.333,85.5 334.333,84.5 335,83.5C 342.452,74.7344 351.619,68.2344 362.5,64C 370.753,60.7947 379.087,58.2947 387.5,56.5 Z"/></g>
<g><path style="opacity:1" fill="#b0cbe2" d="M 715.5,64.5 C 715.5,69.8333 715.5,75.1667 715.5,80.5C 697.085,90.8111 687.751,106.644 687.5,128C 687.237,137.114 689.404,145.614 694,153.5C 698.183,157.382 702.016,161.549 705.5,166C 708.406,168.619 711.739,170.453 715.5,171.5C 715.5,183.833 715.5,196.167 715.5,208.5C 712.873,209.546 710.373,210.88 708,212.5C 703.494,204.82 698.494,197.487 693,190.5C 681.861,178.693 670.695,166.86 659.5,155C 657,153.167 654.5,151.333 652,149.5C 651.706,142.525 653.04,135.859 656,129.5C 662.497,116.081 669.83,103.081 678,90.5C 681.04,86.9466 684.207,83.4466 687.5,80C 691.167,77 694.833,74 698.5,71C 703.593,67.3574 709.26,65.1907 715.5,64.5 Z"/></g>
<g><path style="opacity:1" fill="#fcc17a" d="M 98.5,69.5 C 111.875,71.4084 122.209,78.0751 129.5,89.5C 126.442,94.7337 122.776,99.567 118.5,104C 111.586,109.255 104.419,114.088 97,118.5C 91.9532,112.623 86.1199,107.623 79.5,103.5C 82.1332,95.0931 85.6332,87.0931 90,79.5C 91.9779,75.3619 94.8112,72.0286 98.5,69.5 Z"/></g>
<g><path style="opacity:1" fill="#fbc079" d="M 9.5,70.5 C 19.5778,69.4101 24.4111,73.7435 24,83.5C 21.8967,89.4694 17.73,91.6361 11.5,90C 3.09798,84.1275 2.43131,77.6275 9.5,70.5 Z"/></g>
<g><path style="opacity:0.004" fill="#532a04" d="M 326.5,73.5 C 327.833,74.1667 327.833,74.1667 326.5,73.5 Z"/></g>
<g><path style="opacity:1" fill="#fefefe" d="M 715.5,80.5 C 715.5,92.8333 715.5,105.167 715.5,117.5C 711.278,119.194 707.445,121.528 704,124.5C 703.721,128.17 703.888,131.837 704.5,135.5C 705.5,135.5 706.5,135.5 707.5,135.5C 708.954,139.64 711.62,142.973 715.5,145.5C 715.5,154.167 715.5,162.833 715.5,171.5C 711.739,170.453 708.406,168.619 705.5,166C 702.016,161.549 698.183,157.382 694,153.5C 689.404,145.614 687.237,137.114 687.5,128C 687.751,106.644 697.085,90.8111 715.5,80.5 Z"/></g>
<g><path style="opacity:1" fill="#fdfdfc" d="M 134.5,82.5 C 141.175,82.3337 147.842,82.5004 154.5,83C 168.445,87.1327 179.779,94.9661 188.5,106.5C 189.689,107.429 191.022,107.762 192.5,107.5C 186.808,123.715 190.141,137.715 202.5,149.5C 200.907,157.604 199.074,165.937 197,174.5C 193.473,180.221 190.473,186.221 188,192.5C 184.724,198.108 181.057,203.442 177,208.5C 168.464,216.705 159.631,224.538 150.5,232C 145.797,234.672 141.13,237.338 136.5,240C 133.211,240.882 129.877,241.548 126.5,242C 125.058,242.377 124.058,243.21 123.5,244.5C 119.564,242.862 115.897,240.696 112.5,238C 109.167,237 105.833,236 102.5,235C 97.1077,233.984 92.1077,234.817 87.5,237.5C 80.3377,234.019 73.671,229.685 67.5,224.5C 64.8923,218.444 62.7256,212.111 61,205.5C 59.0053,200.84 56.5053,196.506 53.5,192.5C 65.1904,181.149 73.3571,167.482 78,151.5C 81.5,148 85,144.5 88.5,141C 89.1667,140.333 89.8333,140.333 90.5,141C 85.5312,146.896 82.6979,153.729 82,161.5C 80.0768,183.503 89.2435,198.67 109.5,207C 108.81,209.961 107.81,212.794 106.5,215.5C 108.388,221.016 111.221,221.682 115,217.5C 116.103,207.299 119.936,198.299 126.5,190.5C 131.067,184.551 137.067,181.217 144.5,180.5C 144.191,185.267 144.691,189.934 146,194.5C 147.23,198.038 149.73,200.038 153.5,200.5C 162.832,195.337 169.498,187.837 173.5,178C 173.357,175.849 172.357,174.182 170.5,173C 163.788,170.256 157.121,170.089 150.5,172.5C 149.576,166.231 150.909,160.564 154.5,155.5C 161.041,148.136 169.041,142.969 178.5,140C 179.747,138.506 179.747,137.006 178.5,135.5C 173.811,134.611 169.477,135.611 165.5,138.5C 163.684,136.183 161.684,134.016 159.5,132C 153.747,128.706 147.913,125.54 142,122.5C 124.82,118.922 109.654,123.089 96.5,135C 95.8333,135.667 95.1667,135.667 94.5,135C 96.9705,132.059 98.6372,128.726 99.5,125C 112.972,118.551 124.472,109.385 134,97.5C 138.413,92.568 138.58,87.568 134.5,82.5 Z"/></g>
<g><path style="opacity:1" fill="#fcfcfb" d="M 68.5,84.5 C 65.6176,90.6448 62.4509,96.6448 59,102.5C 52.5656,108.779 45.7323,114.445 38.5,119.5C 39.458,107.884 39.7913,96.2172 39.5,84.5C 49.1693,85.792 58.8359,85.792 68.5,84.5 Z"/></g>
<g><path style="opacity:1" fill="#cafb90" d="M 38.5,119.5 C 45.7323,114.445 52.5656,108.779 59,102.5C 62.4509,96.6448 65.6176,90.6448 68.5,84.5C 72.163,83.8875 75.8297,83.7208 79.5,84C 78.3333,84.5 77.5,85.3333 77,86.5C 76.0386,91.0513 74.8719,95.5513 73.5,100C 64.0219,106.811 55.8552,114.978 49,124.5C 47.5886,126.65 46.7553,128.984 46.5,131.5C 44.0628,131.756 41.7294,132.423 39.5,133.5C 38.5067,128.88 38.1734,124.214 38.5,119.5 Z"/></g>
<g><path style="opacity:1" fill="#552b07" d="M 202.5,149.5 C 190.141,137.715 186.808,123.715 192.5,107.5C 193.621,104.147 194.955,100.814 196.5,97.5C 199.98,94.8542 203.314,92.0209 206.5,89C 216.285,84.2066 226.285,83.54 236.5,87C 241.492,89.1609 246.159,91.8276 250.5,95C 261.028,105.885 268.195,118.718 272,133.5C 273.647,149.187 267.48,160.687 253.5,168C 243.57,169.709 233.904,169.376 224.5,167C 220.5,164.333 216.5,161.667 212.5,159C 209.75,155.142 206.416,151.975 202.5,149.5 Z"/></g>
<g><path style="opacity:1" fill="#afc8de" d="M 646.5,86.5 C 650.131,86.1604 653.464,86.9937 656.5,89C 658.88,91.8406 661.213,94.6739 663.5,97.5C 653.597,111.698 647.097,127.364 644,144.5C 643,143.833 642,143.167 641,142.5C 638.358,126.873 638.024,111.206 640,95.5C 641.611,92.0624 643.777,89.0624 646.5,86.5 Z"/></g>
<g><path style="opacity:1" fill="#92b8f8" d="M -0.5,173.5 C -0.5,145.833 -0.5,118.167 -0.5,90.5C 1.29585,91.7927 2.96252,93.2927 4.5,95C 13.9464,99.6002 22.1131,98.1002 29,90.5C 30.2235,85.7299 31.3901,85.5632 32.5,90C 32.0087,94.754 32.0087,99.5873 32.5,104.5C 32.1224,115.519 31.4557,126.519 30.5,137.5C 28.0324,138.803 25.699,140.303 23.5,142C 12.314,152.075 11.6474,162.742 21.5,174C 14.1483,174.582 6.81495,174.415 -0.5,173.5 Z"/></g>
<g><path style="opacity:1" fill="#fcbbc9" d="M 388.5,99.5 C 418.721,100.236 442.554,112.902 460,137.5C 465.183,145.524 467.35,154.19 466.5,163.5C 452.759,155.972 438.092,152.472 422.5,153C 419.736,153.532 417.07,154.366 414.5,155.5C 413.859,147.797 413.025,140.13 412,132.5C 408.558,122.009 401.392,115.509 390.5,113C 381.853,111.917 373.186,110.917 364.5,110C 372.233,105.628 380.233,102.128 388.5,99.5 Z"/></g>
<g><path style="opacity:1" fill="#fbb841" d="M 338.5,102.5 C 347.784,112.843 355.617,124.176 362,136.5C 364.828,149.305 367.662,162.139 370.5,175C 364.816,182.184 359.482,189.684 354.5,197.5C 350.605,191.7 345.939,186.533 340.5,182C 332.868,178.592 324.868,176.759 316.5,176.5C 319.24,170.648 322.24,164.648 325.5,158.5C 325.291,157.914 324.957,157.414 324.5,157C 326.123,154.92 327.623,152.754 329,150.5C 334.893,135.112 338.059,119.112 338.5,102.5 Z"/></g>
<g><path style="opacity:1" fill="#fcc179" d="M 74.5,109.5 C 80.412,113.238 85.912,117.571 91,122.5C 91.1667,123.167 91.3333,123.833 91.5,124.5C 86.9677,132.87 80.801,139.87 73,145.5C 65.5835,142.387 59.4169,137.72 54.5,131.5C 58.8825,124.59 63.8825,118.09 69.5,112C 71.3146,111.243 72.9812,110.41 74.5,109.5 Z"/></g>
<g><path style="opacity:1" fill="#715d26" d="M 332.5,96.5 C 332.663,103.062 331.996,109.395 330.5,115.5C 330.337,108.938 331.004,102.605 332.5,96.5 Z"/></g>
<g><path style="opacity:1" fill="#fcb842" d="M 359.5,117.5 C 359.735,116.903 360.235,116.57 361,116.5C 370.422,118.053 379.922,119.22 389.5,120C 397.693,122.859 403.193,128.359 406,136.5C 406.5,143.492 406.666,150.492 406.5,157.5C 395.486,158.84 385.82,163.174 377.5,170.5C 374.586,159.282 372.086,147.948 370,136.5C 367.501,129.492 364.001,123.159 359.5,117.5 Z"/></g>
<g><path style="opacity:0.02" fill="#929398" d="M 562.5,119.5 C 560.599,119.246 559.933,119.58 560.5,120.5C 560.158,121.338 559.492,121.672 558.5,121.5C 558.167,120.167 557.833,120.167 557.5,121.5C 556.348,122.625 555.348,122.625 554.5,121.5C 555.833,120.067 557.333,118.733 559,117.5C 560.302,118.085 561.469,118.751 562.5,119.5 Z"/></g>
<g><path style="opacity:0.065" fill="#aac7e0" d="M 552.5,122.5 C 551.833,122.5 551.167,122.5 550.5,122.5C 551.167,119.833 551.833,119.833 552.5,122.5 Z"/></g>
<g><path style="opacity:1" fill="#fbfaf9" d="M 214.5,122.5 C 226.677,124.821 235.51,131.488 241,142.5C 242.479,149.375 240.646,155.208 235.5,160C 230.416,162.321 225.75,161.655 221.5,158C 214.017,153.183 207.85,147.017 203,139.5C 202.841,131.156 206.674,125.489 214.5,122.5 Z"/></g>
<g><path style="opacity:0.008" fill="#9fa5b1" d="M 550.5,122.5 C 550.179,124.048 549.179,124.715 547.5,124.5C 548.29,123.599 549.29,122.932 550.5,122.5 Z"/></g>
<g><path style="opacity:1" fill="#cba5d9" d="M 715.5,117.5 C 715.5,126.833 715.5,136.167 715.5,145.5C 711.62,142.973 708.954,139.64 707.5,135.5C 706.5,135.5 705.5,135.5 704.5,135.5C 703.888,131.837 703.721,128.17 704,124.5C 707.445,121.528 711.278,119.194 715.5,117.5 Z"/></g>
<g><path style="opacity:1" fill="#9a9395" d="M 578.5,127.5 C 575.287,127.19 572.287,127.523 569.5,128.5C 568.167,128.5 566.833,128.5 565.5,128.5C 564.167,128.5 562.833,128.5 561.5,128.5C 567.09,126.45 572.756,126.117 578.5,127.5 Z"/></g>
<g><path style="opacity:1" fill="#b0cae1" d="M 569.5,128.5 C 572.287,127.523 575.287,127.19 578.5,127.5C 585.204,128.004 591.87,128.837 598.5,130C 604.306,132.736 609.973,135.736 615.5,139C 617.134,139.494 618.801,139.66 620.5,139.5C 620.5,140.5 620.5,141.5 620.5,142.5C 625.727,143.521 630.727,145.354 635.5,148C 652.105,159.589 667.272,173.089 681,188.5C 688.386,197.713 695.553,207.046 702.5,216.5C 687.551,234.55 683.717,254.55 691,276.5C 694.769,284.437 700.602,290.104 708.5,293.5C 704.539,294.449 700.705,295.782 697,297.5C 696.722,296.584 696.222,295.918 695.5,295.5C 694.504,288.346 691.671,282.012 687,276.5C 686.517,275.552 686.351,274.552 686.5,273.5C 681.582,270.786 676.748,267.786 672,264.5C 671.667,264.833 671.333,265.167 671,265.5C 670.481,264.484 669.647,263.818 668.5,263.5C 665.593,262.99 662.759,262.323 660,261.5C 644.863,263.266 632.196,269.933 622,281.5C 608.686,301.769 611.186,319.769 629.5,335.5C 646.638,344.191 662.972,343.024 678.5,332C 688.261,324.898 694.261,315.398 696.5,303.5C 701.147,302.704 705.814,302.037 710.5,301.5C 707.601,302.81 704.601,304.143 701.5,305.5C 699.425,309.823 700.758,311.823 705.5,311.5C 708.69,310.345 712.023,309.678 715.5,309.5C 715.5,309.833 715.5,310.167 715.5,310.5C 709.983,311.015 707.316,314.015 707.5,319.5C 710.279,319.721 712.946,319.388 715.5,318.5C 715.5,322.833 715.5,327.167 715.5,331.5C 696.006,346.83 674.173,357.496 650,363.5C 649.833,364 649.667,364.5 649.5,365C 651.606,366.7 653.106,368.867 654,371.5C 656.628,373.126 658.961,375.126 661,377.5C 678.433,402.296 681.766,428.963 671,457.5C 661.196,478.972 645.863,495.306 625,506.5C 627.537,492.585 626.037,479.085 620.5,466C 635.196,460.582 645.696,450.748 652,436.5C 661.345,409.481 655.511,386.147 634.5,366.5C 627.867,364.292 626.2,366.125 629.5,372C 628.734,380.955 629.067,389.955 630.5,399C 630.435,401.591 629.935,404.091 629,406.5C 628.439,407.022 627.772,407.355 627,407.5C 623.38,404.883 620.047,401.883 617,398.5C 611.24,391.956 606.24,384.956 602,377.5C 590.272,382.237 578.105,383.904 565.5,382.5C 570.99,375.178 576.657,368.012 582.5,361C 582.355,360.228 582.022,359.561 581.5,359C 576.455,358.449 571.455,358.782 566.5,360C 548.525,368.438 538.858,382.605 537.5,402.5C 529.462,402.307 521.462,401.64 513.5,400.5C 520.742,378.659 534.742,362.492 555.5,352C 557.088,348.386 556.421,345.219 553.5,342.5C 532.389,331.734 517.722,315.4 509.5,293.5C 507.217,293.608 505.217,294.441 503.5,296C 499.885,301.883 495.552,307.217 490.5,312C 471.453,326.85 449.786,333.183 425.5,331C 407.516,326.177 391.516,318.01 377.5,306.5C 377.5,305.5 377.5,304.5 377.5,303.5C 376.325,303.719 375.325,303.386 374.5,302.5C 365.979,293.478 358.812,283.478 353,272.5C 345.776,246.068 349.11,221.068 363,197.5C 366.311,194.391 368.478,190.724 369.5,186.5C 373.159,185.685 375.826,183.519 377.5,180C 395.515,165.443 416.181,159.109 439.5,161C 446.757,163.808 454.09,166.308 461.5,168.5C 461.5,169.5 461.5,170.5 461.5,171.5C 464.163,173.323 467.163,174.323 470.5,174.5C 470.351,175.552 470.517,176.552 471,177.5C 479.174,182.171 485.007,188.837 488.5,197.5C 490.958,198.124 492.624,199.624 493.5,202C 496.227,202.818 498.894,202.652 501.5,201.5C 504.029,191.669 508.195,182.669 514,174.5C 522.062,151.273 537.896,135.939 561.5,128.5C 562.833,128.5 564.167,128.5 565.5,128.5C 562.737,130.08 560.07,131.913 557.5,134C 555.406,140.07 557.406,141.903 563.5,139.5C 565.597,137.11 568.264,135.444 571.5,134.5C 572.933,131.754 572.267,129.754 569.5,128.5 Z"/></g>
<g><path style="opacity:1" fill="#f48685" d="M 125.5,128.5 C 138.013,129.113 149.013,133.446 158.5,141.5C 151.293,146.546 146.126,153.213 143,161.5C 142.501,165.152 142.335,168.818 142.5,172.5C 128.491,176.337 118.658,185.004 113,198.5C 103.994,197.628 97.3272,192.961 93,184.5C 84.3158,159.585 92.1491,141.751 116.5,131C 119.628,130.159 122.628,129.325 125.5,128.5 Z"/></g>
<g><path style="opacity:1" fill="#f38682" d="M 565.5,128.5 C 566.833,128.5 568.167,128.5 569.5,128.5C 572.267,129.754 572.933,131.754 571.5,134.5C 568.264,135.444 565.597,137.11 563.5,139.5C 557.406,141.903 555.406,140.07 557.5,134C 560.07,131.913 562.737,130.08 565.5,128.5 Z"/></g>
<g><path style="opacity:1" fill="#f48581" d="M 580.5,141.5 C 578.801,141.34 577.134,141.506 575.5,142C 571.458,145.46 566.958,146.627 562,145.5C 561.252,143.16 561.752,141.16 563.5,139.5C 568.237,137.385 573.07,135.385 578,133.5C 579.107,133.585 580.107,133.919 581,134.5C 581.556,136.885 581.39,139.218 580.5,141.5 Z"/></g>
<g><path style="opacity:1" fill="#fdc27a" d="M 48.5,137.5 C 53.7391,144.052 60.4057,148.718 68.5,151.5C 67.2533,162.158 62.5866,171.324 54.5,179C 51.2976,180.483 47.9643,180.817 44.5,180C 34.3603,176.285 26.6937,169.785 21.5,160.5C 23.0978,154.294 26.4311,149.294 31.5,145.5C 37.475,143.191 43.1416,140.524 48.5,137.5 Z"/></g>
<g><path style="opacity:1" fill="#f38682" d="M 580.5,141.5 C 588.167,139.837 590.167,142.504 586.5,149.5C 581.821,150.791 577.321,152.457 573,154.5C 571.343,153.516 569.677,152.516 568,151.5C 567.289,149.633 567.789,148.133 569.5,147C 573.402,145.435 577.069,143.602 580.5,141.5 Z"/></g>
<g><path style="opacity:0.957" fill="#b8a595" d="M 512.5,143.5 C 513.743,146.677 514.743,150.01 515.5,153.5C 515.279,156.097 514.779,156.097 514,153.5C 513.174,150.207 512.674,146.874 512.5,143.5 Z"/></g>
<g><path style="opacity:1" fill="#552c09" d="M 585.5,159.5 C 587.118,161.316 589.118,162.649 591.5,163.5C 597.842,169.098 602.175,176.098 604.5,184.5C 603.818,191.205 602.484,197.705 600.5,204C 591.329,218.162 578.662,227.829 562.5,233C 548.12,233.973 536.12,229.14 526.5,218.5C 519.274,204.999 520.107,191.999 529,179.5C 536.729,168.903 546.562,161.069 558.5,156C 560.8,155.342 563.133,154.842 565.5,154.5C 572.543,155.109 579.209,156.776 585.5,159.5 Z"/></g>
<g><path style="opacity:1" fill="#dddcdb" d="M 289.5,240.5 C 286.815,244.538 284.648,248.871 283,253.5C 281.417,254.971 279.583,255.971 277.5,256.5C 277.389,255.883 277.056,255.383 276.5,255C 271.177,254.501 265.844,254.334 260.5,254.5C 258.446,246.5 256.279,238.5 254,230.5C 250.16,196.709 263.66,172.875 294.5,159C 298.429,157.858 302.429,157.024 306.5,156.5C 308.5,156.833 310.5,157.167 312.5,157.5C 305.426,163.137 298.593,169.137 292,175.5C 286.612,183.609 282.279,192.276 279,201.5C 276.001,214.497 277.668,226.83 284,238.5C 285.444,240.155 287.278,240.822 289.5,240.5 Z"/></g>
<g><path style="opacity:1" fill="#7d7064" d="M 585.5,159.5 C 588.267,159.87 590.267,161.204 591.5,163.5C 589.118,162.649 587.118,161.316 585.5,159.5 Z"/></g>
<g><path style="opacity:1" fill="#c4f389" d="M 311.5,166.5 C 312.043,166.56 312.376,166.893 312.5,167.5C 304.652,181.839 295.818,195.506 286,208.5C 289.128,191.244 297.628,177.244 311.5,166.5 Z"/></g>
<g><path style="opacity:1" fill="#f18481" d="M 154.5,178.5 C 158.182,178.335 161.848,178.501 165.5,179C 162.417,184.088 158.583,188.588 154,192.5C 151.905,187.724 152.072,183.057 154.5,178.5 Z"/></g>
<g><path style="opacity:1" fill="#cafd90" d="M -0.5,180.5 C 3.83738,181.965 8.33738,182.632 13,182.5C 18.8405,181.961 24.6738,181.794 30.5,182C 39.4034,186.29 46.2368,192.79 51,201.5C 57.8167,215.906 61.9834,231.073 63.5,247C 62.648,261.907 56.9814,264.24 46.5,254C 44.8876,253.28 43.3876,253.446 42,254.5C 42.9254,259.066 43.2587,263.733 43,268.5C 40.1409,275.118 35.3075,277.285 28.5,275C 24.8811,270.926 21.3811,266.759 18,262.5C 16.6667,263.167 15.3333,263.833 14,264.5C 12.5,267.5 11,270.5 9.5,273.5C 6.49205,277.085 3.15872,277.419 -0.5,274.5C -0.5,243.167 -0.5,211.833 -0.5,180.5 Z"/></g>
<g><path style="opacity:1" fill="#fbfafa" d="M 576.5,181.5 C 588.161,183.677 592.995,190.677 591,202.5C 585.016,211.144 577.182,217.644 567.5,222C 564.167,222.667 560.833,222.667 557.5,222C 552.873,218.577 549.873,214.077 548.5,208.5C 549.698,203.773 551.698,199.44 554.5,195.5C 559.043,191.119 563.71,186.953 568.5,183C 571.365,182.817 574.031,182.317 576.5,181.5 Z"/></g>
<g><path style="opacity:1" fill="#f6f3f1" d="M 313.5,184.5 C 320.704,183.945 327.704,184.778 334.5,187C 341.599,191.773 346.933,198.106 350.5,206C 350.102,208.774 348.769,209.607 346.5,208.5C 335.928,195.377 322.594,190.544 306.5,194C 308.95,190.941 311.283,187.774 313.5,184.5 Z"/></g>
<g><path style="opacity:1" fill="#572e0c" d="M 655.5,188.5 C 660.473,189.076 665.14,190.576 669.5,193C 671.795,195.545 673.129,198.545 673.5,202C 672.42,219.326 665.42,233.492 652.5,244.5C 651.767,248.174 651.101,251.841 650.5,255.5C 648.604,256.466 646.604,256.799 644.5,256.5C 644.793,250.257 643.793,244.257 641.5,238.5C 637.676,235.188 633.509,232.522 629,230.5C 628.83,218.999 622.997,213.832 611.5,215C 603.568,211.291 603.734,208.124 612,205.5C 614.651,207.164 617.484,207.664 620.5,207C 630.227,196.735 641.894,190.568 655.5,188.5 Z"/></g>
<g><path style="opacity:1" fill="#582f0e" d="M 436.5,191.5 C 455.104,190.388 471.604,195.722 486,207.5C 486.837,209.844 488.171,211.844 490,213.5C 492.681,223.586 489.181,226.252 479.5,221.5C 478.833,221.833 478.167,222.167 477.5,222.5C 468.202,219.219 458.869,218.052 449.5,219C 451.522,223.546 453.689,228.046 456,232.5C 459.413,233.577 461.913,235.744 463.5,239C 467.017,240.924 470.684,242.591 474.5,244C 475.337,245.011 475.67,246.178 475.5,247.5C 477.346,247.222 478.68,247.889 479.5,249.5C 475.335,253.821 472.169,258.821 470,264.5C 468.362,268.722 467.195,273.055 466.5,277.5C 477.918,275.896 488.918,272.896 499.5,268.5C 499.5,267.5 499.5,266.5 499.5,265.5C 503.481,265.427 505.147,267.427 504.5,271.5C 501.134,284.377 493.467,293.877 481.5,300C 455.584,312.409 432.751,308.242 413,287.5C 405.207,276.814 399.707,264.98 396.5,252C 395.791,222.263 409.124,202.096 436.5,191.5 Z"/></g>
<g><path style="opacity:1" fill="#fbbfcb" d="M 654.5,196.5 C 657.93,196.107 661.096,196.773 664,198.5C 666.587,213.894 661.754,226.561 649.5,236.5C 646.401,232.066 642.401,228.733 637.5,226.5C 635.394,220.395 632.061,215.062 627.5,210.5C 635.05,202.893 644.05,198.226 654.5,196.5 Z"/></g>
<g><path style="opacity:1" fill="#fcc0cd" d="M 440.5,198.5 C 456.154,198.67 469.821,203.837 481.5,214C 471.309,212.354 460.976,211.187 450.5,210.5C 448.077,210.594 445.744,211.094 443.5,212C 442.196,212.804 441.529,213.971 441.5,215.5C 442.676,223.236 445.509,230.236 450,236.5C 455.613,242.121 461.779,246.954 468.5,251C 463.203,261.394 459.203,272.227 456.5,283.5C 456.833,284.5 457.167,285.5 457.5,286.5C 461.434,286.989 465.268,286.989 469,286.5C 471.237,285.944 473.237,284.944 475,283.5C 482.078,285.037 488.411,283.037 494,277.5C 489.439,286.269 482.272,292.435 472.5,296C 436.495,302.929 413.995,288.762 405,253.5C 402.292,225.546 414.125,207.212 440.5,198.5 Z"/></g>
<g><path style="opacity:1" fill="#afc9e0" d="M 715.5,216.5 C 715.5,240.167 715.5,263.833 715.5,287.5C 710.542,286.604 706.376,284.271 703,280.5C 688.787,255.382 692.953,234.049 715.5,216.5 Z"/></g>
<g><path style="opacity:1" fill="#fdc2cb" d="M 34.5,249.5 C 33.7354,249.077 32.9021,248.743 32,248.5C 30.0374,249.625 28.204,250.959 26.5,252.5C 24.2573,253.474 21.924,253.808 19.5,253.5C 18.209,253.737 17.209,253.404 16.5,252.5C 16.7409,249.966 15.7409,248.3 13.5,247.5C 11.7483,247.582 10.7483,246.749 10.5,245C 11.0146,242.496 11.0146,239.829 10.5,237C 9.9563,232.109 11.623,228.276 15.5,225.5C 17.8733,224.161 20.2067,222.828 22.5,221.5C 29.6708,220.924 35.3375,223.924 39.5,230.5C 40.4205,235.361 40.4205,240.028 39.5,244.5C 38.4782,246.855 36.8116,248.522 34.5,249.5 Z"/></g>
<g><path style="opacity:1" fill="#e5dbac" d="M 22.5,221.5 C 20.2067,222.828 17.8733,224.161 15.5,225.5C 15.4142,224.504 15.7476,223.671 16.5,223C 18.4357,222.187 20.4357,221.687 22.5,221.5 Z"/></g>
<g><path style="opacity:1" fill="#cafb91" d="M 67.5,224.5 C 73.671,229.685 80.3377,234.019 87.5,237.5C 83.3939,240.429 79.3939,243.596 75.5,247C 74.552,247.483 73.552,247.649 72.5,247.5C 72.5,248.5 72.5,249.5 72.5,250.5C 71.8333,247.833 71.1667,245.167 70.5,242.5C 69.5,236.5 68.5,230.5 67.5,224.5 Z"/></g>
<g><path style="opacity:1" fill="#fcb941" d="M 233.5,382.5 C 233.167,382.5 232.833,382.5 232.5,382.5C 250.506,371.108 254.506,355.775 244.5,336.5C 240.072,329.905 234.072,325.405 226.5,323C 232.647,316.516 239.647,311.183 247.5,307C 248.833,305.333 248.833,303.667 247.5,302C 245.5,301.333 243.5,301.333 241.5,302C 238.672,304.248 235.672,306.248 232.5,308C 222.465,317.703 212.132,327.037 201.5,336C 195.578,340.128 189.244,343.461 182.5,346C 177.72,347.03 173.387,346.03 169.5,343C 166.963,340.128 164.13,337.628 161,335.5C 156.927,330.141 155.594,324.141 157,317.5C 160.727,309.877 165.561,303.044 171.5,297C 193.65,277.592 219.317,265.759 248.5,261.5C 249.086,261.709 249.586,262.043 250,262.5C 257.087,261.685 264.253,261.185 271.5,261C 273.895,260.319 276.228,259.485 278.5,258.5C 278.137,257.817 277.804,257.15 277.5,256.5C 279.583,255.971 281.417,254.971 283,253.5C 284.648,248.871 286.815,244.538 289.5,240.5C 290.995,240.585 291.995,239.919 292.5,238.5C 289.892,234.836 288.392,230.836 288,226.5C 289.384,229.506 291.217,232.173 293.5,234.5C 294.689,235.429 296.022,235.762 297.5,235.5C 298.091,238.614 299.758,241.114 302.5,243C 310.158,247.832 318.491,250.999 327.5,252.5C 332.754,251.768 337.754,250.601 342.5,249C 341.714,260.705 344.047,271.872 349.5,282.5C 345.039,292.439 338.872,301.106 331,308.5C 328.092,313.413 324.425,317.747 320,321.5C 314.599,328.907 308.433,335.74 301.5,342C 290.349,351.404 278.682,360.071 266.5,368C 255.478,372.845 244.478,377.679 233.5,382.5 Z"/></g>
<g><path style="opacity:1" fill="#fcfbfb" d="M 105.5,246.5 C 117.357,248.497 127.191,254.164 135,263.5C 143.141,274.854 140.475,282.188 127,285.5C 114.238,283.071 104.904,276.071 99,264.5C 98.0768,257.353 100.243,251.353 105.5,246.5 Z"/></g>
<g><path style="opacity:1" fill="#888742" d="M 70.5,242.5 C 71.1667,245.167 71.8333,247.833 72.5,250.5C 72.0133,251.473 71.5133,252.473 71,253.5C 70.5014,249.848 70.3347,246.182 70.5,242.5 Z"/></g>
<g><path style="opacity:1" fill="#e2dfa9" d="M 13.5,247.5 C 15.7409,248.3 16.7409,249.966 16.5,252.5C 13.9162,251.952 12.9162,250.285 13.5,247.5 Z"/></g>
<g><path style="opacity:1" fill="#e7d9ae" d="M 34.5,249.5 C 33.3646,251.213 31.698,251.88 29.5,251.5C 29.5,252.5 29.5,253.5 29.5,254.5C 27.7376,254.357 26.0709,254.691 24.5,255.5C 22.6639,254.972 20.9972,254.306 19.5,253.5C 21.924,253.808 24.2573,253.474 26.5,252.5C 28.204,250.959 30.0374,249.625 32,248.5C 32.9021,248.743 33.7354,249.077 34.5,249.5 Z"/></g>
<g><path style="opacity:1" fill="#552c09" d="M 695.5,295.5 C 695.833,298.167 696.167,300.833 696.5,303.5C 694.261,315.398 688.261,324.898 678.5,332C 662.972,343.024 646.638,344.191 629.5,335.5C 611.186,319.769 608.686,301.769 622,281.5C 632.196,269.933 644.863,263.266 660,261.5C 662.759,262.323 665.593,262.99 668.5,263.5C 669.647,263.818 670.481,264.484 671,265.5C 671.333,265.167 671.667,264.833 672,264.5C 676.748,267.786 681.582,270.786 686.5,273.5C 686.351,274.552 686.517,275.552 687,276.5C 691.671,282.012 694.504,288.346 695.5,295.5 Z"/></g>
<g><path style="opacity:1" fill="#fbfbfa" d="M 649.5,269.5 C 651.527,269.338 653.527,269.505 655.5,270C 659.558,271.909 662.891,274.742 665.5,278.5C 667.635,283.21 667.968,288.044 666.5,293C 660.433,303.528 651.433,310.028 639.5,312.5C 629.662,312.561 624.329,307.727 623.5,298C 623.73,294.408 624.73,291.075 626.5,288C 629.264,283.384 633.264,279.218 638.5,275.5C 642.1,273.203 645.767,271.203 649.5,269.5 Z"/></g>
<g><path style="opacity:1" fill="#f38b85" d="M 48.5,273.5 C 50.1106,275.641 51.6106,277.974 53,280.5C 53.6667,282.167 53.6667,283.833 53,285.5C 50.1669,286.87 47.5002,286.536 45,284.5C 43.5528,288.77 42.0528,292.937 40.5,297C 38.8333,297.667 37.1667,297.667 35.5,297C 34.0237,294.357 32.0237,292.19 29.5,290.5C 28.8272,295.846 28.3272,301.512 28,307.5C 25.6667,308.833 23.3333,308.833 21,307.5C 20.0071,311.442 19.3404,315.442 19,319.5C 17.112,321.922 15.112,321.922 13,319.5C 12.0609,312.512 11.7276,305.512 12,298.5C 13.4192,294.039 16.2525,292.706 20.5,294.5C 21.1388,290.042 22.1388,285.709 23.5,281.5C 34.1133,285.628 42.4467,282.961 48.5,273.5 Z"/></g>
<g><path style="opacity:1" fill="#f0847f" d="M 708.5,293.5 C 710.042,294.301 711.708,294.634 713.5,294.5C 713.421,295.93 713.754,297.264 714.5,298.5C 713.376,299.859 712.042,300.859 710.5,301.5C 705.814,302.037 701.147,302.704 696.5,303.5C 696.167,300.833 695.833,298.167 695.5,295.5C 696.222,295.918 696.722,296.584 697,297.5C 700.705,295.782 704.539,294.449 708.5,293.5 Z"/></g>
<g><path style="opacity:1" fill="#bbbfd2" d="M 713.5,294.5 C 714.167,294.5 714.833,294.5 715.5,294.5C 715.5,296.833 715.5,299.167 715.5,301.5C 713.833,301.5 712.167,301.5 710.5,301.5C 712.042,300.859 713.376,299.859 714.5,298.5C 713.754,297.264 713.421,295.93 713.5,294.5 Z"/></g>
<g><path style="opacity:1" fill="#f38683" d="M 710.5,301.5 C 712.167,301.5 713.833,301.5 715.5,301.5C 715.5,304.167 715.5,306.833 715.5,309.5C 712.023,309.678 708.69,310.345 705.5,311.5C 700.758,311.823 699.425,309.823 701.5,305.5C 704.601,304.143 707.601,302.81 710.5,301.5 Z"/></g>
<g><path style="opacity:0.189" fill="#a7c0d7" d="M 506.5,306.5 C 508.75,309.999 510.75,313.665 512.5,317.5C 510.07,316.57 508.07,315.07 506.5,313C 506.833,312.667 507.167,312.333 507.5,312C 507.026,310.271 506.026,309.105 504.5,308.5C 505.167,307.833 505.833,307.167 506.5,306.5 Z"/></g>
<g><path style="opacity:1" fill="#f38884" d="M 715.5,310.5 C 715.5,313.167 715.5,315.833 715.5,318.5C 712.946,319.388 710.279,319.721 707.5,319.5C 707.316,314.015 709.983,311.015 715.5,310.5 Z"/></g>
<g><path style="opacity:1" fill="#d9d7d6" d="M 151.5,334.5 C 154.36,338.355 157.36,342.188 160.5,346C 158,347.833 155.833,350 154,352.5C 151.852,357.289 149.519,361.956 147,366.5C 140.14,354.685 141.64,344.018 151.5,334.5 Z"/></g>
<g><path style="opacity:1" fill="#f4f1ef" d="M 187.5,351.5 C 188.5,351.5 189.5,351.5 190.5,351.5C 190.372,353.655 190.872,355.655 192,357.5C 197.304,365.138 204.137,370.971 212.5,375C 217.104,376.061 221.771,376.727 226.5,377C 211.954,380.269 199.121,376.769 188,366.5C 185.961,362.255 183.794,358.088 181.5,354C 183.852,353.76 185.852,352.927 187.5,351.5 Z"/></g>
<g><path style="opacity:1" fill="#fab740" d="M 222.5,385.5 C 205.226,394.047 186.892,397.213 167.5,395C 148.978,391.269 130.978,385.936 113.5,379C 122.453,376.745 130.787,373.245 138.5,368.5C 140.288,370.791 142.288,372.957 144.5,375C 152.021,375.157 156.188,371.323 157,363.5C 161.46,357.685 167.293,354.018 174.5,352.5C 177.803,369.638 188.136,380.138 205.5,384C 211.152,385.677 216.818,386.177 222.5,385.5 Z"/></g>
<g><path style="opacity:0.004" fill="#532a04" d="M 696.5,355.5 C 696.833,355.5 697.167,355.5 697.5,355.5C 697.315,356.17 696.981,356.17 696.5,355.5 Z"/></g>
<g><path style="opacity:0.04" fill="#c3f984" d="M 2.5,356.5 C 3.16667,358.167 3.83333,359.833 4.5,361.5C 4.21719,362.289 3.71719,362.956 3,363.5C 1.93971,361.05 1.77304,358.717 2.5,356.5 Z"/></g>
<g><path style="opacity:1" fill="#8bcdfd" d="M 331.5,358.5 C 351.767,358.105 372.1,358.605 392.5,360C 407.79,362.404 423.123,364.737 438.5,367C 453.923,371.024 468.256,377.357 481.5,386C 488.743,392.021 494.409,399.187 498.5,407.5C 505.389,408.183 512.222,408.85 519,409.5C 548.489,409.878 573.489,420.545 594,441.5C 602.114,451.617 609.448,462.284 616,473.5C 620.949,494.036 618.615,513.702 609,532.5C 604.791,538.482 599.625,543.315 593.5,547C 578.16,550.85 563.16,550.017 548.5,544.5C 549.238,524.513 543.571,506.679 531.5,491C 529.5,490.333 527.5,490.333 525.5,491C 525.043,491.414 524.709,491.914 524.5,492.5C 539.448,515.642 544.948,540.975 541,568.5C 540.07,590.496 531.904,609.163 516.5,624.5C 516.865,619.416 518.365,614.416 521,609.5C 530.53,578.338 526.53,549.005 509,521.5C 499.296,506.126 487.129,492.959 472.5,482C 455.99,473.41 439.323,465.41 422.5,458C 401.349,451.288 379.682,448.621 357.5,450C 360.086,447.238 362.086,444.072 363.5,440.5C 361.347,436.62 358.847,436.62 356,440.5C 352.004,446.662 346.837,451.662 340.5,455.5C 339.614,456.325 339.281,457.325 339.5,458.5C 334.33,459.746 329.33,461.58 324.5,464C 318.06,465.577 312.393,464.244 307.5,460C 304.842,456.375 302.009,452.875 299,449.5C 296.061,444.095 295.228,438.428 296.5,432.5C 308.094,425.536 320.094,419.37 332.5,414C 336.666,411.083 340.999,408.416 345.5,406C 348.3,401.451 346.967,399.451 341.5,400C 329.504,407 317.17,413.5 304.5,419.5C 303.64,395.929 292.306,388.096 270.5,396C 258.593,406.797 255.76,419.63 262,434.5C 268.981,443.525 277.815,446.191 288.5,442.5C 291.558,448.533 294.558,454.533 297.5,460.5C 297.514,462.593 296.848,464.426 295.5,466C 266.603,474.853 242.769,491.02 224,514.5C 209.679,535.6 204.512,558.1 208.5,582C 210.28,589.85 212.114,597.683 214,605.5C 214.749,609.111 216.249,612.277 218.5,615C 217.978,615.561 217.645,616.228 217.5,617C 220.009,623.185 223.176,629.019 227,634.5C 227.667,635.5 227.667,636.5 227,637.5C 209.393,625.205 198.059,608.538 193,587.5C 185.879,562.2 185.712,536.867 192.5,511.5C 195.341,504.491 198.841,497.824 203,491.5C 204.917,485.66 203.084,483.66 197.5,485.5C 192.832,492.164 188.665,499.164 185,506.5C 182.714,516.867 180.714,527.2 179,537.5C 171.056,537.083 163.223,538.249 155.5,541C 144.272,542.972 135.106,539.472 128,530.5C 119.23,510.789 115.563,490.122 117,468.5C 119.052,463.712 120.552,458.712 121.5,453.5C 122.5,453.5 123.5,453.5 124.5,453.5C 125.281,449.348 127.281,445.848 130.5,443C 148.413,431.131 167.746,422.131 188.5,416C 198.186,413.272 207.853,410.438 217.5,407.5C 219.432,408.52 221.432,408.687 223.5,408C 244.989,387.102 269.989,372.769 298.5,365C 309.357,361.772 320.357,359.606 331.5,358.5 Z"/></g>
<g><path style="opacity:0.008" fill="#532a04" d="M 688.5,360.5 C 689.833,361.167 689.833,361.167 688.5,360.5 Z"/></g>
<g><path style="opacity:0.074" fill="#c6ff87" d="M 12.5,362.5 C 13.404,363.209 13.7373,364.209 13.5,365.5C 11.2167,366.076 10.8834,365.076 12.5,362.5 Z"/></g>
<g><path style="opacity:0.116" fill="#c6fe87" d="M 70.5,371.5 C 71.791,371.263 72.791,371.596 73.5,372.5C 73.5654,372.938 73.3988,373.272 73,373.5C 71.9326,372.809 70.7659,372.309 69.5,372C 69.7284,371.601 70.0618,371.435 70.5,371.5 Z"/></g>
<g><path style="opacity:1" fill="#fcc0cd" d="M 563.5,369.5 C 564.239,369.369 564.906,369.536 565.5,370C 561.712,374.406 558.545,379.239 556,384.5C 555.104,387.025 555.604,389.192 557.5,391C 566.618,390.998 575.952,390.664 585.5,390C 590.263,388.972 594.929,387.972 599.5,387C 604.371,395.157 610.037,402.657 616.5,409.5C 621.054,413.403 626.221,416.07 632,417.5C 633.955,417.359 635.455,416.526 636.5,415C 637.615,405.082 637.615,394.748 636.5,384C 636.421,379.815 637.588,379.648 640,383.5C 657.333,416.822 649.667,442.489 617,460.5C 608.639,447.8 599.139,435.967 588.5,425C 574.888,415.861 560.221,408.861 544.5,404C 546.637,395.631 549.471,387.464 553,379.5C 555.821,375.36 559.321,372.027 563.5,369.5 Z"/></g>
<g><path style="opacity:1" fill="#97621d" d="M 232.5,382.5 C 232.833,382.5 233.167,382.5 233.5,382.5C 229.994,383.733 226.327,384.733 222.5,385.5C 225.192,382.858 228.525,381.858 232.5,382.5 Z"/></g>
<g><path style="opacity:1" fill="#c9fb8e" d="M 104.5,384.5 C 111.434,385.755 118.1,387.922 124.5,391C 114.266,406.913 112.933,423.58 120.5,441C 116.695,446.108 113.528,451.608 111,457.5C 109.829,467.965 108.996,478.299 108.5,488.5C 94.6177,472.201 87.6177,453.201 87.5,431.5C 87.0559,413.489 92.7226,397.823 104.5,384.5 Z"/></g>
<g><path style="opacity:0.004" fill="#532a04" d="M 677.5,388.5 C 678.833,389.167 678.833,389.167 677.5,388.5 Z"/></g>
<g><path style="opacity:0.004" fill="#532a04" d="M 678.5,391.5 C 679.833,392.167 679.833,392.167 678.5,391.5 Z"/></g>
<g><path style="opacity:1" fill="#f9b640" d="M 229.5,390.5 C 230.239,390.369 230.906,390.536 231.5,391C 227.868,393.63 224.535,396.63 221.5,400C 193.89,405.648 167.39,414.481 142,426.5C 136.857,416.911 134.691,406.578 135.5,395.5C 148.176,397.794 160.676,400.794 173,404.5C 192.476,403.757 211.31,399.091 229.5,390.5 Z"/></g>
<g><path style="opacity:0.004" fill="#532a04" d="M 679.5,393.5 C 680.833,394.167 680.833,394.167 679.5,393.5 Z"/></g>
<g><path style="opacity:1" fill="#552c09" d="M 446.5,394.5 C 450.759,395.246 454.759,396.746 458.5,399C 468.196,410.304 469.862,422.47 463.5,435.5C 460.768,437.035 458.102,438.869 455.5,441C 454.167,441.333 452.833,441.667 451.5,442C 447.193,442.299 443.026,442.466 439,442.5C 437.736,440.393 435.903,439.393 433.5,439.5C 431.769,434.48 429.936,429.48 428,424.5C 426.057,413.224 429.557,404.057 438.5,397C 441.379,396.454 444.046,395.621 446.5,394.5 Z"/></g>
<g><path style="opacity:0.259" fill="#78b8e9" d="M 501.5,395.5 C 503.773,395.957 505.106,397.29 505.5,399.5C 505.167,399.5 504.833,399.5 504.5,399.5C 502.771,398.764 501.771,397.43 501.5,395.5 Z"/></g>
<g><path style="opacity:0.008" fill="#532a04" d="M 681.5,399.5 C 682.833,400.167 682.833,400.167 681.5,399.5 Z"/></g>
<g><path style="opacity:1" fill="#f8b8c4" d="M 126.5,401.5 C 128.3,411.286 131.3,420.786 135.5,430C 132.688,431.977 130.022,434.144 127.5,436.5C 124.625,430.871 122.959,424.871 122.5,418.5C 123.993,412.862 125.326,407.195 126.5,401.5 Z"/></g>
<g><path style="opacity:1" fill="#f8f7f5" d="M 438.5,407.5 C 441.862,407.07 444.695,408.07 447,410.5C 447.667,414.833 447.667,419.167 447,423.5C 442.571,428.808 438.237,428.808 434,423.5C 432.442,417.122 433.942,411.788 438.5,407.5 Z"/></g>
<g><path style="opacity:0.008" fill="#532a04" d="M 683.5,407.5 C 684.833,408.167 684.833,408.167 683.5,407.5 Z"/></g>
<g><path style="opacity:1" fill="#f7f5f4" d="M 286.5,407.5 C 293.323,408.434 296.323,412.434 295.5,419.5C 295.14,423.708 292.974,426.708 289,428.5C 280.257,426.382 277.591,421.049 281,412.5C 282.73,410.598 284.563,408.931 286.5,407.5 Z"/></g>
<g><path style="opacity:0.006" fill="#532a04" d="M 684.5,410.5 C 685.525,410.897 685.692,411.563 685,412.5C 684.536,411.906 684.369,411.239 684.5,410.5 Z"/></g>
<g><path style="opacity:1" fill="#b2fdd4" d="M 397.5,460.5 C 399.214,461.738 401.214,462.405 403.5,462.5C 409.311,462.323 412.311,464.823 412.5,470C 414.368,473.137 415.368,476.637 415.5,480.5C 414.953,483.826 414.453,487.16 414,490.5C 410.216,496.612 406.882,502.945 404,509.5C 394.865,520.216 383.698,523.383 370.5,519C 368.571,516.562 366.238,514.728 363.5,513.5C 361.064,514.1 359.398,515.6 358.5,518C 342.555,526.128 328.888,523.461 317.5,510C 316.167,509.333 314.833,509.333 313.5,510C 310.883,513.818 307.549,514.485 303.5,512C 298.812,507.122 296.479,501.289 296.5,494.5C 296.985,487.59 299.151,481.256 303,475.5C 303.49,474.207 303.657,472.873 303.5,471.5C 305.143,471.52 306.476,470.853 307.5,469.5C 312.511,471.806 317.678,472.473 323,471.5C 332.261,467.703 341.261,463.369 350,458.5C 358.397,459.385 366.897,459.052 375.5,457.5C 376.594,459.303 378.261,459.636 380.5,458.5C 386.127,460.423 391.794,461.09 397.5,460.5 Z"/></g>
<g><path style="opacity:1" fill="#808c64" d="M 403.5,462.5 C 401.214,462.405 399.214,461.738 397.5,460.5C 399.684,459.892 401.684,460.559 403.5,462.5 Z"/></g>
<g><path style="opacity:1" fill="#fce7a4" d="M 236.5,632.5 C 251.267,635.087 260.934,629.42 265.5,615.5C 286.051,621.102 300.551,613.769 309,593.5C 311.305,580.55 310.305,567.884 306,555.5C 295.498,538.672 281.331,534.839 263.5,544C 257.347,550.156 252.347,557.156 248.5,565C 248.833,565.333 249.167,565.667 249.5,566C 247.917,572.696 246.917,579.529 246.5,586.5C 247.068,588.204 247.068,589.704 246.5,591C 247.756,591.417 248.423,592.25 248.5,593.5C 237.891,592.357 229.557,596.024 223.5,604.5C 218.24,590.269 215.24,575.436 214.5,560C 217.064,543.111 223.397,527.944 233.5,514.5C 241.062,506.103 249.395,498.603 258.5,492C 265.08,488.426 271.413,484.426 277.5,480C 282.172,477.776 287.005,475.942 292,474.5C 289.954,480.536 288.454,486.869 287.5,493.5C 288.697,499.565 290.197,505.565 292,511.5C 294.67,516.716 298.837,519.882 304.5,521C 308.548,521.434 312.548,521.434 316.5,521C 324.685,528.575 334.685,531.908 346.5,531C 351.857,529.033 357.524,526.866 363.5,524.5C 384.06,534.178 400.56,529.178 413,509.5C 416.022,502.793 419.022,496.126 422,489.5C 422.731,481.798 422.564,474.131 421.5,466.5C 428.939,469.135 436.106,472.468 443,476.5C 445.021,475.764 446.521,476.597 447.5,479C 461.209,484.051 473.376,491.551 484,501.5C 490.434,510.713 497.1,519.713 504,528.5C 514.062,546.594 518.728,565.927 518,586.5C 516.372,599.295 512.872,611.795 507.5,624C 503.54,629.628 499.206,634.961 494.5,640C 489.5,643.667 484.5,647.333 479.5,651C 474.804,652.622 470.138,654.122 465.5,655.5C 464.193,649.338 460.693,644.671 455,641.5C 451.519,639.45 447.852,637.783 444,636.5C 441.418,638.906 438.752,638.906 436,636.5C 424.928,638.911 415.928,644.578 409,653.5C 408.187,655.436 407.687,657.436 407.5,659.5C 400.209,660.064 393.542,658.231 387.5,654C 383.833,653.333 380.167,653.333 376.5,654C 373.945,655.444 371.279,656.611 368.5,657.5C 364.566,655.474 360.4,654.141 356,653.5C 351.538,654.982 347.038,656.316 342.5,657.5C 332.282,651.721 322.616,652.388 313.5,659.5C 306.14,657.241 300.973,652.574 298,645.5C 288.899,635.701 277.733,630.534 264.5,630C 257.34,631.58 251.007,634.747 245.5,639.5C 242.171,637.494 239.171,635.161 236.5,632.5 Z"/></g>
<g><path style="opacity:0.004" fill="#532a04" d="M 91.5,479.5 C 90.8333,480.167 90.8333,480.167 91.5,479.5 Z"/></g>
<g><path style="opacity:0.251" fill="#afd16c" d="M 94.5,484.5 C 95.8333,484.5 96.5,485.167 96.5,486.5C 95.1667,486.5 94.5,485.833 94.5,484.5 Z"/></g>
<g><path style="opacity:0.093" fill="#c6ff87" d="M 97.5,489.5 C 98.8333,489.5 99.5,490.167 99.5,491.5C 98.5,491.167 97.8333,490.5 97.5,489.5 Z"/></g>
<g><path style="opacity:0.004" fill="#532a04" d="M 656.5,493.5 C 657.833,494.167 657.833,494.167 656.5,493.5 Z"/></g>
<g><path style="opacity:0.012" fill="#532a04" d="M 102.5,494.5 C 101.833,495.167 101.833,495.167 102.5,494.5 Z"/></g>
<g><path style="opacity:0.004" fill="#532a04" d="M 105.5,498.5 C 104.833,499.167 104.833,499.167 105.5,498.5 Z"/></g>
<g><path style="opacity:1" fill="#562c07" d="M 265.5,615.5 C 259.29,612.13 254.123,607.463 250,601.5C 249.433,598.832 248.933,596.166 248.5,593.5C 248.423,592.25 247.756,591.417 246.5,591C 247.068,589.704 247.068,588.204 246.5,586.5C 246.917,579.529 247.917,572.696 249.5,566C 249.167,565.667 248.833,565.333 248.5,565C 252.347,557.156 257.347,550.156 263.5,544C 281.331,534.839 295.498,538.672 306,555.5C 310.305,567.884 311.305,580.55 309,593.5C 300.551,613.769 286.051,621.102 265.5,615.5 Z"/></g>
<g><path style="opacity:1" fill="#552c07" d="M 476.5,595.5 C 474.116,599.359 471.45,603.193 468.5,607C 464.904,609.461 461.237,611.627 457.5,613.5C 454.744,613.816 452.244,614.816 450,616.5C 449.228,616.355 448.561,616.022 448,615.5C 447.692,616.308 447.192,616.975 446.5,617.5C 442.222,616.453 437.888,615.62 433.5,615C 432.675,613.312 431.675,613.145 430.5,614.5C 426.995,610.808 423.495,607.141 420,603.5C 417.037,597.869 414.537,592.035 412.5,586C 412.5,582.333 412.5,578.333 412.5,574C 413.162,564.433 416.162,555.933 421.5,548.5C 424.809,547.758 427.643,546.091 430,543.5C 430.333,543.833 430.667,544.167 431,544.5C 431.374,543.584 431.874,542.75 432.5,542C 441.249,539.414 449.916,539.414 458.5,542C 477.391,556.012 483.391,573.845 476.5,595.5 Z"/></g>
<g><path style="opacity:1" fill="#fcfbfa" d="M 282.5,550.5 C 292.41,549.584 298.576,553.917 301,563.5C 303.871,574.984 299.538,582.318 288,585.5C 273.973,582.123 269.306,573.456 274,559.5C 275.688,555.315 278.521,552.315 282.5,550.5 Z"/></g>
<g><path style="opacity:1" fill="#fdfcfa" d="M 435.5,552.5 C 443.02,552.509 447.853,556.176 450,563.5C 452.143,573.882 448.476,581.215 439,585.5C 422.179,582.489 418.179,573.155 427,557.5C 429.166,554.468 432,552.802 435.5,552.5 Z"/></g>
<g><path style="opacity:0.376" fill="#79c6ff" d="M 551.5,556.5 C 552.833,557.167 552.833,557.167 551.5,556.5 Z"/></g>
<g><path style="opacity:0.012" fill="#79c6ff" d="M 550.5,562.5 C 551.833,563.167 551.833,563.167 550.5,562.5 Z"/></g>
<g><path style="opacity:0.159" fill="#79c6ff" d="M 549.5,564.5 C 550.139,565.097 550.472,565.93 550.5,567C 550.316,568.376 549.649,569.209 548.5,569.5C 549.649,569.209 550.316,568.376 550.5,567C 550.472,565.93 550.139,565.097 549.5,564.5 Z"/></g>
<g><path style="opacity:0.184" fill="#79c6ff" d="M 548.5,572.5 C 551.046,573.979 551.046,575.479 548.5,577C 549.883,578.461 549.549,579.294 547.5,579.5C 547.674,577.139 548.007,574.806 548.5,572.5 Z"/></g>
<g><path style="opacity:1" fill="#b1fbd2" d="M 266.5,584.5 C 268.199,584.34 269.866,584.506 271.5,585C 275.018,586.836 278.518,588.67 282,590.5C 284.49,599.828 280.99,604.828 271.5,605.5C 263.132,602.766 259.966,597.1 262,588.5C 262.907,586.391 264.407,585.058 266.5,584.5 Z"/></g>
<g><path style="opacity:1" fill="#b2fbd2" d="M 454.5,584.5 C 465.342,584.689 468.342,589.689 463.5,599.5C 459.198,604.494 454.198,605.494 448.5,602.5C 447.907,600.618 447.24,598.785 446.5,597C 447.728,591.933 450.395,587.767 454.5,584.5 Z"/></g>
<g><path style="opacity:1" fill="#592f0b" d="M 360.5,589.5 C 372.235,588.377 383.569,589.877 394.5,594C 396.043,595.878 397.876,597.378 400,598.5C 402.005,603.504 403.171,608.504 403.5,613.5C 401.226,620.717 398.393,627.717 395,634.5C 385.078,644.584 373.078,650.251 359,651.5C 348.807,649.736 340.14,645.069 333,637.5C 327.054,628.785 323.22,619.285 321.5,609C 321.723,601.762 325.39,597.096 332.5,595C 341.927,593.043 351.261,591.21 360.5,589.5 Z"/></g>
<g><path style="opacity:1" fill="#febab9" d="M 457.5,613.5 C 461.237,611.627 464.904,609.461 468.5,607C 471.45,603.193 474.116,599.359 476.5,595.5C 491.504,593.991 499.837,600.824 501.5,616C 501.259,619.207 500.759,622.374 500,625.5C 496.006,630.955 490.173,633.789 482.5,634C 467.124,635.792 458.79,628.959 457.5,613.5 Z"/></g>
<g><path style="opacity:0.424" fill="#79c6ff" d="M 544.5,595.5 C 545.525,595.897 545.692,596.563 545,597.5C 544.536,596.906 544.369,596.239 544.5,595.5 Z"/></g>
<g><path style="opacity:1" fill="#fdb8b8" d="M 371.5,597.5 C 395.843,597.484 401.676,608.151 389,629.5C 368.379,649.798 350.045,648.132 334,624.5C 332.213,620.363 330.879,616.03 330,611.5C 328.382,605.752 330.548,602.586 336.5,602C 348.207,599.598 359.874,598.098 371.5,597.5 Z"/></g>
<g><path style="opacity:0.206" fill="#78bdf1" d="M 543.5,599.5 C 543.662,601.527 543.495,603.527 543,605.5C 542.184,606.823 541.017,607.489 539.5,607.5C 539.062,607.565 538.728,607.399 538.5,607C 539.756,606.583 540.423,605.75 540.5,604.5C 541.167,604.5 541.5,604.167 541.5,603.5C 542.598,602.603 542.598,601.77 541.5,601C 542.044,600.283 542.711,599.783 543.5,599.5 Z"/></g>
<g><path style="opacity:1" fill="#f9bab9" d="M 248.5,593.5 C 248.933,596.166 249.433,598.832 250,601.5C 254.123,607.463 259.29,612.13 265.5,615.5C 260.934,629.42 251.267,635.087 236.5,632.5C 229.502,624.55 225.168,615.217 223.5,604.5C 229.557,596.024 237.891,592.357 248.5,593.5 Z"/></g>
<g><path style="opacity:0.21" fill="#78c3fb" d="M 539.5,608.5 C 538.94,610.801 538.44,613.134 538,615.5C 537.658,613.381 536.825,613.047 535.5,614.5C 535.845,611.802 537.178,609.802 539.5,608.5 Z"/></g>
<g><path style="opacity:0.212" fill="#79c6ff" d="M 532.5,617.5 C 532.5,618.833 531.833,619.5 530.5,619.5C 530.833,618.5 531.5,617.833 532.5,617.5 Z"/></g>
<g><path style="opacity:1" fill="#8bccfc" d="M 261.5,638.5 C 269.414,637.498 276.747,638.998 283.5,643C 288.534,647.699 293.2,652.699 297.5,658C 293.444,660.474 289.611,663.308 286,666.5C 284.357,671.688 283.357,677.022 283,682.5C 282.333,683.167 281.667,683.833 281,684.5C 272.923,682.049 265.09,678.882 257.5,675C 245.993,663.97 245.659,652.637 256.5,641C 258.315,640.243 259.981,639.41 261.5,638.5 Z"/></g>
<g><path style="opacity:1" fill="#8bcbfb" d="M 433.5,645.5 C 444.897,643.283 453.064,647.283 458,657.5C 459.027,662.316 458.027,666.65 455,670.5C 447.397,678.876 438.23,683.876 427.5,685.5C 425.393,683.273 423.06,681.273 420.5,679.5C 419.049,673.099 416.382,667.266 412.5,662C 414.716,657.775 417.716,654.108 421.5,651C 425.274,648.473 429.274,646.64 433.5,645.5 Z"/></g>
<g><path style="opacity:0.135" fill="#fee696" d="M 495.5,649.5 C 495.842,648.662 496.508,648.328 497.5,648.5C 497.672,649.492 497.338,650.158 496.5,650.5C 496.5,649.833 496.167,649.5 495.5,649.5 Z"/></g>
<g><path style="opacity:0.28" fill="#f5dc8f" d="M 494.5,650.5 C 494.833,651.833 495.167,651.833 495.5,650.5C 495.833,650.5 496.167,650.5 496.5,650.5C 495.817,652.176 494.483,652.843 492.5,652.5C 492.833,651.5 493.5,650.833 494.5,650.5 Z"/></g>
<g><path style="opacity:1" fill="#cce6fa" d="M 408.5,715.5 C 401.5,715.5 394.5,715.5 387.5,715.5C 385.833,712.833 384.167,712.833 382.5,715.5C 362.167,715.5 341.833,715.5 321.5,715.5C 321.431,712.916 320.265,710.916 318,709.5C 313.794,710.388 309.294,710.555 304.5,710C 300.619,705.815 299.619,700.982 301.5,695.5C 297.455,693.904 293.288,692.571 289,691.5C 288.883,687.366 289.716,683.366 291.5,679.5C 290.619,676.856 290.786,674.189 292,671.5C 296.048,668.312 300.381,665.646 305,663.5C 308,665.167 311,666.833 314,668.5C 317.092,667.076 319.926,665.243 322.5,663C 324.423,662.192 326.423,661.692 328.5,661.5C 334.086,663.249 339.586,665.249 345,667.5C 346.5,666.667 347.667,665.5 348.5,664C 351.234,663.79 353.734,662.956 356,661.5C 360.444,662.472 364.611,664.139 368.5,666.5C 373.237,663.555 378.403,661.555 384,660.5C 387.56,661.695 390.726,663.529 393.5,666C 398.282,666.119 402.949,666.785 407.5,668C 408.88,669.324 409.214,670.657 408.5,672C 410.807,672.354 411.141,673.354 409.5,675C 410.325,681.501 413.825,686.001 420,688.5C 418.219,694.197 417.219,700.197 417,706.5C 414.638,710.027 411.804,713.027 408.5,715.5 Z"/></g>
<g><path style="opacity:1" fill="#5b3312" d="M 381.5,669.5 C 389.175,669.982 396.841,670.649 404.5,671.5C 407.588,680.898 406.088,689.565 400,697.5C 392.585,706.355 383.419,709.689 372.5,707.5C 372.429,704.861 371.429,702.694 369.5,701C 374.498,693.337 377.831,685.004 379.5,676C 378.989,673.681 379.656,671.514 381.5,669.5 Z"/></g>
<g><path style="opacity:1" fill="#572e0c" d="M 314.5,670.5 C 322.536,670.402 330.536,670.902 338.5,672C 340.994,673.946 341.661,676.279 340.5,679C 342.281,685.284 344.448,691.451 347,697.5C 349.069,700.315 351.569,702.648 354.5,704.5C 353.754,705.736 353.421,707.07 353.5,708.5C 339.065,714.412 327.565,710.745 319,697.5C 315.245,691.49 312.745,684.99 311.5,678C 311.548,675.078 312.548,672.578 314.5,670.5 Z"/></g>
<g><path style="opacity:1" fill="#faf9f8" d="M 320.5,678.5 C 324.571,678.234 328.571,678.567 332.5,679.5C 335.569,687.042 338.236,694.709 340.5,702.5C 334.86,702.429 330.36,700.096 327,695.5C 323.146,690.461 320.979,684.795 320.5,678.5 Z"/></g>
<g><path style="opacity:1" fill="#fcfcfb" d="M 386.5,678.5 C 390.5,678.5 394.5,678.5 398.5,678.5C 398.101,690.074 392.267,697.407 381,700.5C 380.167,700.333 379.333,700.167 378.5,700C 383.011,693.486 385.677,686.319 386.5,678.5 Z"/></g>
<g><path style="opacity:0.173" fill="#c1dcf1" d="M 454.5,685.5 C 455.391,686.11 456.391,686.443 457.5,686.5C 456.167,687.833 454.833,687.833 453.5,686.5C 454.167,686.5 454.5,686.167 454.5,685.5 Z"/></g>
<g><path style="opacity:1" fill="#cce6fa" d="M 480.5,715.5 C 468.167,715.5 455.833,715.5 443.5,715.5C 442.737,712.859 442.57,710.192 443,707.5C 447.472,700.04 453.972,695.206 462.5,693C 464.871,690.294 467.537,687.961 470.5,686C 474.166,684.729 476.666,685.896 478,689.5C 476.711,695.985 479.211,699.652 485.5,700.5C 485.231,705.973 483.565,710.973 480.5,715.5 Z"/></g>
<g><path style="opacity:1" fill="#c6ddee" d="M 444.5,687.5 C 445.965,688.406 446.965,689.739 447.5,691.5C 445.183,693.316 443.016,695.316 441,697.5C 440.167,695.833 439.333,694.167 438.5,692.5C 440.162,690.348 442.162,688.682 444.5,687.5 Z"/></g>
<g><path style="opacity:1" fill="#c7deef" d="M 273.5,691.5 C 280.86,692.533 283.194,696.533 280.5,703.5C 277.843,703.838 275.51,703.171 273.5,701.5C 272.261,698.17 272.261,694.837 273.5,691.5 Z"/></g>
<g><path style="opacity:1" fill="#8dc9f7" d="M 435.5,715.5 C 430.5,715.5 425.5,715.5 420.5,715.5C 423.886,710.791 425.386,705.457 425,699.5C 426.903,697.559 427.736,695.226 427.5,692.5C 428.833,692.5 430.167,692.5 431.5,692.5C 433.76,699.985 435.094,707.652 435.5,715.5 Z"/></g>
<g><path style="opacity:1" fill="#88c0ea" d="M 296.5,715.5 C 293.833,715.5 291.167,715.5 288.5,715.5C 288.58,710.684 289.414,706.017 291,701.5C 291.667,702.167 292.333,702.833 293,703.5C 293.333,706.167 293.667,708.833 294,711.5C 295.706,712.308 296.539,713.641 296.5,715.5 Z"/></g>
<g><path style="opacity:0.035" fill="#c6e7fe" d="M 494.5,707.5 C 495.833,708.167 495.833,708.167 494.5,707.5 Z"/></g>
<g><path style="opacity:0.159" fill="#b9cede" d="M 491.5,712.5 C 491.5,712.833 491.5,713.167 491.5,713.5C 490.662,713.842 490.328,714.508 490.5,715.5C 489.833,715.5 489.167,715.5 488.5,715.5C 488.856,713.81 489.856,712.81 491.5,712.5 Z"/></g>
<g><path style="opacity:0.078" fill="#c6e7fe" d="M 491.5,713.5 C 492.833,714.167 492.833,714.167 491.5,713.5 Z"/></g>
<g><path style="opacity:1" fill="#6a492e" d="M 387.5,715.5 C 385.833,715.5 384.167,715.5 382.5,715.5C 384.167,712.833 385.833,712.833 387.5,715.5 Z"/></g>
</svg>
